<?xml version="1.0" standalone="no"?>
<!DOCTYPE svg PUBLIC "-//W3C//DTD SVG 20010904//EN"
 "http://www.w3.org/TR/2001/REC-SVG-20010904/DTD/svg10.dtd">
<svg version="1.0" xmlns="http://www.w3.org/2000/svg"
 width="1024.000000pt" height="1024.000000pt" viewBox="0 0 1024.000000 1024.000000"
 preserveAspectRatio="xMidYMid meet">

<g transform="translate(0.000000,1024.000000) scale(0.100000,-0.100000)"
fill="#000000" stroke="none">
<path d="M3959 8939 c-116 -18 -170 -83 -192 -230 -9 -68 -15 -83 -33 -89 -11
-5 -113 -25 -225 -45 -579 -103 -1676 -323 -1729 -346 -80 -36 -126 -98 -137
-187 -5 -43 85 -526 203 -1097 14 -66 58 -282 99 -480 40 -198 110 -529 154
-735 44 -206 137 -663 206 -1015 70 -352 136 -661 147 -687 34 -80 116 -138
196 -138 13 0 119 20 235 45 717 154 1740 367 1782 372 31 3 236 -19 530 -56
264 -33 526 -65 583 -71 98 -11 114 -16 380 -129 152 -65 376 -162 497 -216
121 -54 248 -108 283 -121 108 -41 200 -28 270 39 42 40 59 73 162 317 159
376 393 927 480 1130 48 113 195 457 325 765 131 308 325 765 432 1015 108
250 206 483 219 518 40 105 27 188 -41 257 -35 36 -93 65 -450 220 -225 98
-493 213 -595 256 -102 42 -277 116 -390 164 -113 48 -329 139 -480 202 -151
63 -327 138 -390 166 -103 46 -122 51 -185 51 -83 0 -137 -23 -179 -79 -28
-36 -29 -37 -85 -31 -176 18 -384 43 -786 92 -247 30 -540 66 -650 80 -110 13
-276 33 -370 44 -93 11 -181 21 -195 23 -14 2 -46 1 -71 -4z m173 -108 c40 -6
132 -17 203 -25 72 -9 384 -48 695 -86 504 -63 985 -120 1010 -120 5 0 -5 -34
-22 -75 -29 -71 -33 -76 -57 -71 -38 8 -270 36 -349 42 -37 3 -94 9 -127 14
-33 5 -154 21 -270 34 -115 14 -298 37 -405 51 -107 14 -323 41 -480 60 -334
40 -315 44 -331 -71 -39 -293 -62 -461 -79 -599 -47 -369 -92 -694 -130 -950
-12 -77 -36 -259 -55 -405 -58 -458 -104 -807 -135 -1030 -16 -118 -32 -235
-35 -260 -2 -25 -18 -156 -35 -292 -36 -300 -36 -304 -7 -321 12 -8 105 -24
207 -36 102 -12 352 -45 555 -72 204 -27 431 -56 505 -64 276 -30 277 -30 467
-114 98 -42 208 -90 246 -106 37 -15 66 -30 64 -31 -2 -2 -31 1 -66 7 -35 5
-311 41 -614 79 -1063 133 -1432 181 -1468 190 -44 12 -78 48 -88 92 -9 37 -8
41 43 418 19 146 58 436 86 645 28 209 75 558 105 775 30 217 75 546 99 730
75 554 185 1360 197 1435 25 160 64 182 271 156z m2284 -151 c38 -18 245 -105
459 -195 882 -369 1729 -731 1806 -770 36 -19 69 -70 69 -106 0 -28 -50 -153
-245 -609 -62 -146 -195 -458 -295 -695 -371 -877 -696 -1638 -820 -1925 -71
-162 -151 -351 -179 -420 -54 -132 -70 -153 -131 -171 -37 -11 -47 -8 -286 96
-137 59 -523 225 -859 370 -1335 574 -1306 561 -1328 608 -34 71 -36 63 243
697 84 190 197 446 250 570 54 124 159 367 235 540 321 738 686 1593 789 1849
53 134 66 155 109 182 41 26 90 20 183 -21z m-1681 -115 c-88 -17 -116 -17
-50 0 28 7 66 13 85 13 22 0 10 -5 -35 -13z m188 -2 c-13 -2 -33 -2 -45 0 -13
2 -3 4 22 4 25 0 35 -2 23 -4z m-100 -10 c-7 -2 -19 -2 -25 0 -7 3 -2 5 12 5
14 0 19 -2 13 -5z m-196 -9 c-3 -3 -12 -4 -19 -1 -8 3 -5 6 6 6 11 1 17 -2 13
-5z m146 -1 c-7 -2 -21 -2 -30 0 -10 3 -4 5 12 5 17 0 24 -2 18 -5z m-196 -9
c-3 -3 -12 -4 -19 -1 -8 3 -5 6 6 6 11 1 17 -2 13 -5z m140 0 c-3 -3 -12 -4
-19 -1 -8 3 -5 6 6 6 11 1 17 -2 13 -5z m-40 -10 c-3 -3 -12 -4 -19 -1 -8 3
-5 6 6 6 11 1 17 -2 13 -5z m-182 -14 c-27 -12 -43 -12 -25 0 8 5 22 9 30 9
10 0 8 -3 -5 -9z m-769 -69 c-6 -38 -14 -72 -17 -75 -5 -5 -190 -42 -699 -140
-734 -141 -1078 -212 -1096 -227 -8 -6 -14 -20 -14 -30 0 -11 36 -198 80 -417
43 -218 100 -505 125 -637 49 -255 133 -660 250 -1195 20 -91 60 -284 90 -430
30 -146 70 -341 89 -435 19 -93 58 -280 86 -415 53 -260 64 -287 114 -275 11
3 131 28 266 55 386 78 770 159 831 176 53 15 68 14 261 -10 113 -14 223 -26
244 -26 56 0 30 -15 -51 -29 -38 -7 -275 -55 -525 -107 -250 -53 -572 -120
-715 -150 -143 -29 -291 -61 -330 -69 -82 -19 -113 -14 -149 24 -25 26 -35 71
-146 622 -120 601 -174 863 -275 1334 -50 236 -313 1543 -380 1895 -31 159
-30 183 13 231 27 30 34 32 602 145 625 125 1290 251 1331 253 l25 1 -10 -69z
m684 39 c-8 -5 -19 -10 -25 -10 -5 0 -3 5 5 10 8 5 20 10 25 10 6 0 3 -5 -5
-10z m100 -5 c-46 -18 -64 -17 -25 0 17 8 37 14 45 14 8 0 -1 -7 -20 -14z
m1174 -10 c5 -13 2 -14 -17 -4 -32 17 -33 19 -10 19 12 0 23 -7 27 -15z
m-1324 -5 c-8 -5 -19 -10 -25 -10 -5 0 -3 5 5 10 8 5 20 10 25 10 6 0 3 -5 -5
-10z m1393 3 c-7 -2 -21 -2 -30 0 -10 3 -4 5 12 5 17 0 24 -2 18 -5z m-1313
-13 c-8 -5 -19 -10 -25 -10 -5 0 -3 5 5 10 8 5 20 10 25 10 6 0 3 -5 -5 -10z
m1425 -40 c41 -28 75 -53 75 -55 0 -2 -5 -15 -11 -29 l-12 -25 -46 38 c-25 22
-74 53 -108 71 -59 30 -86 49 -45 32 61 -26 115 -58 152 -89 33 -29 44 -33 51
-22 14 22 12 25 -43 60 -63 39 -103 69 -94 69 4 0 40 -23 81 -50z m-1550 30
c-3 -5 -12 -10 -18 -10 -7 0 -6 4 3 10 19 12 23 12 15 0z m65 -15 c-14 -8 -29
-14 -35 -14 -5 0 1 6 15 14 14 8 30 14 35 14 6 0 -1 -6 -15 -14z m-51 -19 c-2
-2 -15 -9 -29 -15 -24 -11 -24 -11 -6 3 16 13 49 24 35 12z m-129 -20 c0 -2
-26 -19 -57 -36 -32 -18 -78 -48 -103 -68 -66 -52 -70 -55 -70 -49 0 10 121
99 174 128 54 30 56 31 56 25z m70 -10 c0 -2 -7 -7 -16 -10 -8 -3 -12 -2 -9 4
6 10 25 14 25 6z m-41 -20 c-2 -2 -44 -31 -94 -64 -49 -33 -110 -75 -135 -93
-25 -18 -39 -26 -32 -17 14 18 248 178 259 178 3 0 4 -2 2 -4z m728 -12 c-3
-3 -12 -4 -19 -1 -8 3 -5 6 6 6 11 1 17 -2 13 -5z m46 -1 c-7 -2 -19 -2 -25 0
-7 3 -2 5 12 5 14 0 19 -2 13 -5z m-110 -10 c-18 -2 -48 -2 -65 0 -18 2 -4 4
32 4 36 0 50 -2 33 -4z m262 -3 c18 -5 -1 -6 -45 -3 -41 3 -77 7 -79 9 -8 7
94 2 124 -6z m-435 -16 c-41 -8 -79 -12 -85 -10 -13 4 91 24 130 24 17 0 -4
-6 -45 -14z m503 -1 c-7 -2 -19 -2 -25 0 -7 3 -2 5 12 5 14 0 19 -2 13 -5z
m-1663 -13 c18 -12 2 -12 -25 0 -13 6 -15 9 -5 9 8 0 22 -4 30 -9z m1443 3
c-13 -2 -35 -2 -50 0 -16 2 -5 4 22 4 28 0 40 -2 28 -4z m282 -3 c13 -5 14 -9
5 -9 -8 0 -24 4 -35 9 -13 5 -14 9 -5 9 8 0 24 -4 35 -9z m-745 -30 c-46 -16
-86 -28 -87 -26 -6 6 130 55 152 55 11 1 -18 -13 -65 -29z m338 23 c-15 -2
-42 -2 -60 0 -18 2 -6 4 27 4 33 0 48 -2 33 -4z m365 -20 c38 -8 66 -17 64
-19 -3 -3 -25 0 -49 6 -25 7 -85 18 -134 25 -85 13 -86 14 -19 9 39 -3 101
-12 138 -21z m-1788 7 c14 -7 8 -8 -20 -3 -22 3 -42 7 -44 9 -9 8 45 2 64 -6z
m152 4 c-3 -3 -12 -4 -19 -1 -8 3 -5 6 6 6 11 1 17 -2 13 -5z m1161 -1 c-10
-2 -28 -2 -40 0 -13 2 -5 4 17 4 22 1 32 -1 23 -4z m679 -48 c105 -49 237
-133 303 -192 38 -34 43 -43 35 -61 -10 -20 -13 -19 -70 29 -85 71 -167 127
-260 176 -93 49 -94 58 -2 12 74 -38 158 -93 249 -166 72 -57 78 -60 78 -39 0
34 -187 163 -333 230 -51 24 -103 48 -117 54 l-25 12 25 -6 c14 -3 67 -26 117
-49z m-1787 35 c18 -12 2 -12 -25 0 -13 6 -15 9 -5 9 8 0 22 -4 30 -9z m1027
4 c-3 -3 -12 -4 -19 -1 -8 3 -5 6 6 6 11 1 17 -2 13 -5z m-1174 -11 c-7 -2
-19 -2 -25 0 -7 3 -2 5 12 5 14 0 19 -2 13 -5z m1097 -9 c-56 -17 -64 -17 -25
1 17 8 39 14 50 14 11 0 0 -7 -25 -15z m-1047 -1 c-7 -2 -19 -2 -25 0 -7 3 -2
5 12 5 14 0 19 -2 13 -5z m135 -18 c-3 -3 -9 2 -12 12 -6 14 -5 15 5 6 7 -7
10 -15 7 -18z m-42 -10 c17 -13 16 -14 -13 -4 -34 11 -42 19 -20 19 7 0 22 -7
33 -15z m729 -18 c-33 -18 -74 -42 -90 -53 -39 -27 -55 -36 -55 -31 0 6 101
73 145 96 65 33 65 23 0 -12z m95 3 c-8 -5 -19 -10 -25 -10 -5 0 -3 5 5 10 8
5 20 10 25 10 6 0 3 -5 -5 -10z m-70 -30 c-19 -11 -39 -19 -45 -19 -5 0 6 8
25 19 19 11 40 19 45 19 6 0 -6 -8 -25 -19z m-1630 -14 c0 -2 -13 -9 -30 -15
-35 -12 -41 -5 -7 9 25 10 37 12 37 6z m1569 -10 c-2 -2 -15 -9 -29 -15 -24
-11 -24 -11 -6 3 16 13 49 24 35 12z m549 -13 c-10 -2 -28 -2 -40 0 -13 2 -5
4 17 4 22 1 32 -1 23 -4z m192 -3 c20 -6 21 -8 5 -8 -11 -1 -38 3 -60 7 l-40
9 35 0 c19 0 46 -4 60 -8z m-2441 -4 c-10 -9 -69 -36 -69 -32 0 7 52 35 64 36
5 0 7 -2 5 -4z m2174 -3 c-7 -2 -19 -2 -25 0 -7 3 -2 5 12 5 14 0 19 -2 13 -5z
m-533 -7 c0 -2 -15 -13 -33 -24 -19 -11 -47 -28 -62 -38 -16 -11 -26 -13 -22
-6 5 6 4 12 -1 12 -10 0 -37 -29 -36 -39 1 -12 -45 -41 -50 -32 -6 9 45 54
114 101 22 15 30 18 21 7 -18 -22 -9 -22 31 3 35 21 38 22 38 16z m900 -17
c10 -6 4 -7 -15 -3 -16 4 -37 11 -45 15 -10 6 -4 7 15 3 17 -4 37 -11 45 -15z
m-2520 6 c0 -2 -22 -16 -50 -30 -27 -14 -50 -23 -50 -20 0 2 21 16 48 29 53
28 52 28 52 21z m-114 -28 c-161 -103 -244 -165 -329 -245 l-102 -96 85 87
c85 87 183 164 295 231 53 33 96 51 51 23z m2104 -7 c-19 -11 -39 -19 -45 -19
-5 0 6 8 25 19 19 11 40 19 45 19 6 0 -6 -8 -25 -19z m360 14 c-60 -8 -128 -8
-123 -1 2 4 37 6 76 6 40 -1 61 -3 47 -5z m293 -46 c63 -38 94 -63 45 -37 -13
7 -52 23 -88 36 -42 14 -56 23 -40 23 l25 1 -25 15 c-18 11 -19 14 -5 9 11 -3
50 -24 88 -47z m-445 35 c-10 -2 -26 -2 -35 0 -10 3 -2 5 17 5 19 0 27 -2 18
-5z m245 0 c-13 -2 -33 -2 -45 0 -13 2 -3 4 22 4 25 0 35 -2 23 -4z m-378 -23
c-91 -21 -183 -54 -270 -97 -33 -17 -66 -28 -74 -25 -8 2 -11 0 -7 -6 6 -11
-40 -45 -61 -45 -7 0 -13 -3 -13 -7 0 -4 -21 -22 -47 -41 -63 -44 -97 -74
-224 -196 -58 -56 -104 -104 -102 -107 2 -2 -7 -13 -21 -24 -14 -10 -23 -21
-21 -24 3 -3 -5 -13 -17 -24 -18 -15 -20 -16 -9 -1 7 9 10 17 7 17 -13 0 39
65 119 149 85 89 210 193 340 283 81 56 244 148 261 148 5 -1 -22 -17 -60 -36
-37 -19 -66 -37 -64 -39 2 -3 37 9 77 26 80 34 203 68 241 68 14 -1 -11 -9
-55 -19z m453 13 c-10 -2 -26 -2 -35 0 -10 3 -2 5 17 5 19 0 27 -2 18 -5z
m-2633 -21 c-31 -27 -118 -85 -111 -74 4 7 31 28 59 47 48 33 73 45 52 27z
m543 -59 c-16 -2 -40 -2 -55 0 -16 2 -3 4 27 4 30 0 43 -2 28 -4z m170 0 c-10
-2 -28 -2 -40 0 -13 2 -5 4 17 4 22 1 32 -1 23 -4z m800 -18 c-46 -44 -148
-124 -148 -118 -1 13 144 141 153 136 5 -3 3 -11 -5 -18z m-1065 8 c-7 -2 -21
-2 -30 0 -10 3 -4 5 12 5 17 0 24 -2 18 -5z m367 -3 c20 -6 21 -8 5 -8 -11 0
-33 4 -50 8 -27 7 -27 8 -5 8 14 0 36 -4 50 -8z m-423 -6 c-3 -3 -12 -4 -19
-1 -8 3 -5 6 6 6 11 1 17 -2 13 -5z m241 -1 c-10 -2 -26 -2 -35 0 -10 3 -2 5
17 5 19 0 27 -2 18 -5z m-763 -12 c-50 -45 -157 -132 -160 -129 -4 3 156 138
164 138 3 0 1 -4 -4 -9z m482 3 c-3 -3 -12 -4 -19 -1 -8 3 -5 6 6 6 11 1 17
-2 13 -5z m196 -1 c-7 -2 -21 -2 -30 0 -10 3 -4 5 12 5 17 0 24 -2 18 -5z
m185 0 c-10 -2 -26 -2 -35 0 -10 3 -2 5 17 5 19 0 27 -2 18 -5z m139 1 c-3 -3
-12 -4 -19 -1 -8 3 -5 6 6 6 11 1 17 -2 13 -5z m-587 -19 c-46 -18 -64 -17
-25 0 17 8 37 14 45 14 8 0 -1 -7 -20 -14z m197 9 c-3 -3 -12 -4 -19 -1 -8 3
-5 6 6 6 11 1 17 -2 13 -5z m353 -9 c46 -18 28 -18 -35 -1 -30 9 -40 14 -25
14 14 0 41 -6 60 -13z m179 -28 c41 -18 77 -39 79 -47 4 -12 2 -11 -11 2 -9 9
-52 30 -94 46 -107 41 -112 43 -78 36 17 -3 63 -20 104 -37z m-576 26 c-7 -2
-19 -2 -25 0 -7 3 -2 5 12 5 14 0 19 -2 13 -5z m-50 -10 c-7 -2 -19 -2 -25 0
-7 3 -2 5 12 5 14 0 19 -2 13 -5z m-173 -13 c-8 -5 -19 -10 -25 -10 -5 0 -3 5
5 10 8 5 20 10 25 10 6 0 3 -5 -5 -10z m95 -5 c-21 -8 -41 -12 -44 -10 -6 6
40 24 64 24 11 0 2 -6 -20 -14z m665 -20 c14 -8 21 -14 15 -14 -5 0 -21 6 -35
14 -14 8 -20 14 -15 14 6 0 21 -6 35 -14z m1473 8 c-13 -2 -35 -2 -50 0 -16 2
-5 4 22 4 28 0 40 -2 28 -4z m97 -9 c0 -2 -13 -4 -30 -4 -16 0 -30 4 -30 8 0
5 14 7 30 4 17 -2 30 -6 30 -8z m-2390 2 c0 -2 -7 -7 -16 -10 -8 -3 -12 -2 -9
4 6 10 25 14 25 6z m76 -13 c-41 -21 -103 -47 -94 -38 10 10 101 53 113 54 6
0 -3 -7 -19 -16z m2077 10 c-7 -2 -21 -2 -30 0 -10 3 -4 5 12 5 17 0 24 -2 18
-5z m-112 -24 c-36 -10 -67 -17 -69 -15 -5 6 88 34 113 34 11 0 -9 -8 -44 -19z
m434 6 c54 -17 33 -18 -30 -1 -27 8 -41 14 -30 14 11 0 38 -5 60 -13z m-2531
-10 c-10 -8 -23 -14 -29 -14 -5 0 -1 6 9 14 11 8 24 15 30 15 5 0 1 -7 -10
-15z m931 5 c3 -6 -1 -7 -9 -4 -18 7 -21 14 -7 14 6 0 13 -4 16 -10z m1570
-19 c17 -4 -31 -7 -106 -6 -76 0 -135 3 -132 8 5 9 196 7 238 -2z m105 -1 c8
-5 11 -10 5 -10 -5 0 -17 5 -25 10 -8 5 -10 10 -5 10 6 0 17 -5 25 -10z
m-2650 -4 c0 -2 -18 -15 -40 -30 -22 -14 -40 -24 -40 -22 0 5 71 56 77 56 2 0
3 -2 3 -4z m1030 -6 c0 -5 -2 -10 -4 -10 -3 0 -8 5 -11 10 -3 6 -1 10 4 10 6
0 11 -4 11 -10z m1253 3 c-7 -2 -19 -2 -25 0 -7 3 -2 5 12 5 14 0 19 -2 13 -5z
m-303 -33 c-30 -16 -59 -29 -65 -29 -5 0 15 13 45 29 30 16 60 29 65 29 6 0
-15 -13 -45 -29z m180 5 c-47 -13 -87 -22 -89 -20 -2 2 23 11 55 20 33 9 64
18 69 20 6 2 19 3 30 3 11 0 -18 -10 -65 -23z m447 19 c-3 -3 -12 -4 -19 -1
-8 3 -5 6 6 6 11 1 17 -2 13 -5z m123 -19 c28 -14 50 -28 50 -30 0 -5 -99 42
-109 51 -12 11 15 1 59 -21z m-12 -20 c28 -13 52 -26 52 -29 0 -4 -57 18 -130
53 l-25 11 25 -6 c14 -3 49 -16 78 -29z m-2261 9 c-3 -3 -12 -4 -19 -1 -8 3
-5 6 6 6 11 1 17 -2 13 -5z m-894 -79 c-75 -84 -97 -101 -34 -27 22 26 51 59
63 74 13 15 27 27 31 27 5 1 -22 -33 -60 -74z m835 68 c-10 -2 -26 -2 -35 0
-10 3 -2 5 17 5 19 0 27 -2 18 -5z m145 0 c-13 -2 -33 -2 -45 0 -13 2 -3 4 22
4 25 0 35 -2 23 -4z m-568 -11 c-6 -5 -39 -29 -75 -54 -36 -25 -110 -92 -165
-149 -94 -98 -138 -132 -115 -89 6 11 16 22 23 26 8 5 7 2 -2 -9 -8 -10 -11
-20 -9 -23 3 -3 15 7 26 23 37 52 201 207 259 245 54 36 79 49 58 30z m350 -2
c-11 -5 -27 -9 -35 -9 -9 0 -8 4 5 9 11 5 27 9 35 9 9 0 8 -4 -5 -9z m305 -4
c25 -8 36 -15 25 -15 -11 0 -33 6 -50 14 -39 18 -31 18 25 1z m1354 -25 c-140
-66 -290 -179 -425 -318 -69 -71 -183 -217 -226 -290 -31 -53 -42 -57 -13 -5
97 173 326 412 518 541 63 42 198 111 217 111 5 0 -27 -18 -71 -39z m-1427 23
c-3 -3 -12 -4 -19 -1 -8 3 -5 6 6 6 11 1 17 -2 13 -5z m1342 2 c-2 -2 -45 -31
-95 -65 -50 -33 -135 -101 -190 -152 l-99 -91 98 96 c82 79 261 216 284 216 4
0 4 -2 2 -4z m956 -39 c52 -39 134 -117 146 -139 5 -9 6 -23 3 -31 -4 -11 -28
8 -87 67 -45 46 -95 93 -112 105 -16 12 -23 19 -15 15 8 -4 34 -23 58 -42 24
-19 45 -32 48 -29 3 3 -17 22 -43 43 -83 66 -81 73 2 11z m-3025 -17 c-30 -27
-77 -73 -103 -102 l-49 -53 38 49 c35 44 153 156 164 156 3 -1 -20 -23 -50
-50z m678 43 c-10 -2 -26 -2 -35 0 -10 3 -2 5 17 5 19 0 27 -2 18 -5z m-65
-10 c-7 -2 -19 -2 -25 0 -7 3 -2 5 12 5 14 0 19 -2 13 -5z m-223 -7 c0 -2 -17
-14 -37 -26 -64 -38 -222 -170 -290 -245 -40 -42 -50 -50 -25 -20 65 81 208
208 297 264 50 32 55 34 55 27z m167 -2 c-3 -3 -12 -4 -19 -1 -8 3 -5 6 6 6
11 1 17 -2 13 -5z m-867 -7 c0 -2 -10 -12 -22 -23 l-23 -19 19 23 c18 21 26
27 26 19z m2730 -6 l-55 -5 75 -6 c75 -6 75 -6 -31 -8 -59 -1 -122 -4 -140 -7
-22 -3 -17 0 15 9 26 8 54 12 61 10 7 -3 16 -1 20 5 3 6 30 10 58 9 l52 -2
-55 -5z m148 2 c-10 -2 -26 -2 -35 0 -10 3 -2 5 17 5 19 0 27 -2 18 -5z m157
-39 c113 -46 215 -126 306 -240 48 -61 67 -101 34 -74 -9 7 -13 15 -11 18 3 2
-9 16 -25 29 -16 14 -28 28 -25 30 7 7 -113 112 -161 140 -43 25 -61 43 -22
23 41 -22 30 -1 -13 24 -51 29 -82 42 -163 68 -46 14 -51 17 -20 12 22 -3 67
-17 100 -30z m-2340 -17 c-82 -43 -161 -94 -205 -131 -19 -17 -21 -17 -10 -2
28 36 254 176 285 175 6 0 -26 -19 -70 -42z m2178 26 c-7 -2 -21 -2 -30 0 -10
3 -4 5 12 5 17 0 24 -2 18 -5z m-336 -9 c-3 -3 -12 -4 -19 -1 -8 3 -5 6 6 6
11 1 17 -2 13 -5z m488 -26 c33 -11 65 -24 70 -29 6 -6 -3 -5 -20 2 -16 7 -66
23 -110 36 -44 13 -62 20 -40 17 22 -3 67 -15 100 -26z m-3065 19 c0 -2 -10
-12 -22 -23 l-23 -19 19 23 c18 21 26 27 26 19z m-56 -72 c-9 -14 -18 -25 -21
-25 -5 0 5 18 20 38 17 22 18 13 1 -13z m56 4 c-7 -11 -14 -18 -17 -15 -3 3 0
12 7 21 18 21 23 19 10 -6z m-30 -49 c-6 -11 -13 -20 -16 -20 -2 0 0 9 6 20 6
11 13 20 16 20 2 0 0 -9 -6 -20z m1153 -7 c-23 -2 -64 -2 -90 0 -26 2 -7 3 42
3 50 0 71 -1 48 -3z m-923 -7 c0 -2 -8 -10 -17 -17 -16 -13 -17 -12 -4 4 13
16 21 21 21 13z m773 -3 c-7 -2 -21 -2 -30 0 -10 3 -4 5 12 5 17 0 24 -2 18
-5z m245 0 c-10 -2 -26 -2 -35 0 -10 3 -2 5 17 5 19 0 27 -2 18 -5z m-301 -9
c-3 -3 -12 -4 -19 -1 -8 3 -5 6 6 6 11 1 17 -2 13 -5z m356 -1 c-7 -2 -19 -2
-25 0 -7 3 -2 5 12 5 14 0 19 -2 13 -5z m1408 -4 c-36 -6 -58 -6 -65 1 -7 7
11 10 55 9 l64 -1 -54 -9z m-2747 -29 c-10 -16 -20 -28 -22 -26 -4 5 28 56 35
56 2 0 -4 -13 -13 -30z m1155 26 c-2 -2 -29 -6 -59 -9 -36 -4 -46 -3 -30 3 25
8 97 13 89 6z m119 -3 c-10 -2 -26 -2 -35 0 -10 3 -2 5 17 5 19 0 27 -2 18 -5z
m1397 -3 c4 -6 -7 -8 -27 -5 -26 4 -29 3 -13 -4 11 -5 15 -10 8 -10 -6 -1 -20
-4 -30 -7 -15 -5 -15 -4 -3 5 27 19 -10 13 -55 -9 -37 -19 -27 -21 20 -6 11 4
-7 -7 -39 -24 -143 -75 -247 -171 -384 -355 -41 -55 -77 -102 -81 -105 -3 -3
-7 -9 -8 -15 -3 -17 -113 -221 -113 -210 0 35 196 395 215 395 4 0 -3 -14 -15
-31 -12 -16 -20 -32 -17 -35 2 -3 21 18 41 46 60 84 193 215 262 261 68 44 82
68 17 28 -60 -36 -82 -54 -173 -142 -67 -65 -55 -44 20 34 105 110 348 233
375 189z m-2186 -87 c-46 -49 -88 -88 -94 -88 -5 0 -10 -7 -10 -15 0 -8 -5
-15 -10 -15 -6 0 -9 4 -7 10 6 18 24 34 34 32 6 -1 13 4 16 12 3 9 0 11 -8 6
-9 -5 -11 -4 -6 4 4 6 11 9 15 7 4 -3 38 26 76 64 37 39 70 70 73 70 3 0 -33
-39 -79 -87z m430 83 c-8 -8 -79 -35 -79 -30 0 6 60 33 74 34 5 0 7 -2 5 -4z
m91 -21 c-46 -18 -64 -17 -25 0 17 8 37 14 45 14 8 0 -1 -7 -20 -14z m395 0
c39 -17 21 -18 -25 0 -19 7 -28 14 -20 14 8 0 29 -6 45 -14z m55 0 c14 -8 21
-14 15 -14 -5 0 -21 6 -35 14 -14 8 -20 14 -15 14 6 0 21 -6 35 -14z m-511
-19 c-10 -9 -89 -46 -89 -41 0 6 72 44 84 45 5 0 7 -2 5 -4z m601 -48 c0 4 -6
14 -12 22 -11 12 -10 12 5 1 9 -7 17 -22 17 -31 0 -16 -8 -14 -56 15 -76 46
-83 56 -11 17 31 -18 57 -29 57 -24z m-35 34 c-3 -3 -11 0 -18 7 -9 10 -8 11
6 5 10 -3 15 -9 12 -12z m-705 5 c0 -2 -20 -18 -45 -36 -25 -18 -45 -30 -45
-27 0 6 79 66 87 66 1 0 3 -1 3 -3z m-595 -26 c-9 -8 -36 -10 -30 -2 2 4 11 8
20 8 8 0 13 -3 10 -6z m1840 -56 c-30 -36 -66 -83 -81 -105 -15 -22 -29 -40
-31 -40 -12 0 73 116 131 178 50 53 40 36 -19 -33z m-1205 41 c0 -2 -19 -16
-41 -31 -23 -15 -80 -61 -128 -103 -57 -50 -71 -59 -41 -28 25 26 80 74 123
107 74 56 87 64 87 55z m-667 -30 c-10 -12 -22 -24 -26 -27 -5 -3 -8 -9 -7
-13 0 -3 -15 -34 -34 -69 -18 -34 -41 -75 -50 -92 -11 -20 -15 -23 -11 -8 10
38 106 213 116 213 6 0 8 4 5 8 -3 5 1 9 9 9 12 0 12 -4 -2 -21z m527 1 c0 -2
-10 -12 -22 -23 l-23 -19 19 23 c18 21 26 27 26 19z m2155 -7 c-16 -4 -39 -8
-50 -8 -16 0 -15 2 5 8 14 4 36 8 50 8 22 0 22 -1 -5 -8z m143 3 c-15 -2 -42
-2 -60 0 -18 2 -6 4 27 4 33 0 48 -2 33 -4z m101 -24 c28 -12 50 -24 47 -26
-2 -3 -14 1 -26 7 -12 6 -35 12 -51 12 -18 1 -25 4 -18 9 8 5 6 8 -7 12 -10 2
-14 5 -8 6 6 0 35 -9 63 -20z m-2016 4 c-13 -2 -35 -2 -50 0 -16 2 -5 4 22 4
28 0 40 -2 28 -4z m105 0 c-16 -2 -40 -2 -55 0 -16 2 -3 4 27 4 30 0 43 -2 28
-4z m1563 -8 c-18 -8 -38 -15 -45 -15 -15 1 46 28 64 29 8 0 0 -6 -19 -14z
m174 5 c-3 -5 -16 -10 -28 -9 -20 1 -20 2 3 9 14 4 26 8 28 9 2 1 0 -3 -3 -9z
m52 4 c-3 -3 -12 -4 -19 -1 -8 3 -5 6 6 6 11 1 17 -2 13 -5z m-2021 -24 c-63
-25 -70 -33 -21 -25 36 5 35 4 -15 -14 -62 -23 -72 -25 -50 -11 13 9 13 10 0
11 -19 1 100 59 120 59 8 -1 -7 -9 -34 -20z m297 13 c-7 -2 -19 -2 -25 0 -7 3
-2 5 12 5 14 0 19 -2 13 -5z m44 -9 c-3 -3 -12 -4 -19 -1 -8 3 -5 6 6 6 11 1
17 -2 13 -5z m1508 -19 c-76 -25 -103 -27 -33 -2 64 23 72 25 88 26 8 0 -16
-11 -55 -24z m-2155 11 c0 -3 -4 -8 -10 -11 -5 -3 -10 -1 -10 4 0 6 5 11 10
11 6 0 10 -2 10 -4z m438 -3 c-10 -2 -28 -2 -40 0 -13 2 -5 4 17 4 22 1 32 -1
23 -4z m145 0 c-13 -2 -33 -2 -45 0 -13 2 -3 4 22 4 25 0 35 -2 23 -4z m1457
3 c0 -2 -24 -18 -54 -35 -30 -17 -85 -58 -123 -93 l-68 -62 58 61 c55 57 187
148 187 129z m-1677 -13 c-7 -2 -19 -2 -25 0 -7 3 -2 5 12 5 14 0 19 -2 13 -5z
m274 1 c-3 -3 -12 -4 -19 -1 -8 3 -5 6 6 6 11 1 17 -2 13 -5z m98 -14 c3 -6
-1 -7 -9 -4 -18 7 -21 14 -7 14 6 0 13 -4 16 -10z m-806 -48 c-24 -26 -57 -63
-72 -82 l-29 -35 28 40 c26 39 104 125 112 125 3 0 -15 -21 -39 -48z m268 24
c0 -8 -6 -12 -15 -9 -11 5 -11 7 0 14 7 5 13 9 14 9 0 0 1 -6 1 -14z m646 -48
c52 -42 46 -54 -8 -16 -25 18 -45 35 -45 40 0 4 -3 7 -7 7 -20 -3 -30 2 -30
16 0 17 21 6 90 -47z m1225 57 c-13 -13 -118 -73 -113 -64 4 5 30 23 58 39 50
29 66 36 55 25z m-2403 -84 c-25 -38 -57 -97 -71 -130 -15 -34 -31 -61 -37
-61 -6 0 -8 -3 -4 -6 3 -3 -4 -27 -15 -52 -11 -26 -33 -83 -48 -127 -16 -44
-29 -70 -29 -57 -1 27 60 196 97 267 68 131 135 244 143 239 4 -2 -12 -36 -36
-73z m492 56 c0 -7 -27 -27 -59 -45 -32 -17 -58 -30 -58 -28 0 7 90 66 90 59
0 -4 5 0 11 10 12 20 16 21 16 4z m1763 -72 c-13 -14 -27 -25 -32 -25 -9 0 42
49 51 50 3 0 -6 -11 -19 -25z m-2018 -47 c-22 -29 -52 -74 -67 -100 -27 -48
-46 -67 -24 -25 25 47 113 177 121 177 5 0 -9 -24 -30 -52z m1638 48 c0 -2 -8
-10 -17 -17 -16 -13 -17 -12 -4 4 13 16 21 21 21 13z m-301 -46 c-12 -22 -24
-38 -26 -36 -4 4 37 76 44 76 2 0 -6 -18 -18 -40z m599 -30 c-18 -23 -51 -67
-73 -99 -65 -96 -67 -98 -39 -46 25 47 131 185 141 185 3 0 -10 -18 -29 -40z
m-2018 0 c-6 -11 -13 -20 -16 -20 -2 0 0 9 6 20 6 11 13 20 16 20 2 0 0 -9 -6
-20z m1933 -47 c-51 -75 -77 -106 -47 -56 29 48 83 123 88 123 3 0 -16 -30
-41 -67z m-1579 0 c-27 -20 -61 -47 -76 -61 -16 -14 -28 -20 -28 -13 0 7 -5 9
-10 6 -6 -4 -8 -10 -5 -15 3 -4 -10 -26 -29 -49 -19 -22 -44 -57 -56 -76 -24
-38 -32 -45 -24 -17 5 14 3 14 -10 -2 -18 -22 -21 -40 -6 -31 6 4 5 -5 -2 -20
-8 -18 -14 -22 -20 -13 -6 10 -8 10 -8 -1 0 -8 -3 -12 -6 -8 -8 7 59 129 81
147 8 7 15 9 15 4 0 -4 11 3 25 16 34 32 32 50 -2 19 -20 -17 -18 -13 7 17 37
43 97 91 121 96 8 2 16 6 19 9 8 9 44 28 54 29 5 0 -13 -16 -40 -37z m993 -63
c-17 -38 -32 -68 -34 -66 -5 5 54 136 61 136 2 0 -10 -31 -27 -70z m-737 41
c-30 -9 -66 -23 -80 -30 -16 -9 -21 -9 -14 -2 14 16 104 50 129 50 11 0 -5 -8
-35 -18z m139 15 c-2 -2 -22 -6 -44 -10 -29 -5 -36 -4 -25 3 13 10 79 16 69 7z
m-801 -41 c-6 -14 -13 -23 -15 -21 -5 5 15 46 22 46 3 0 -1 -11 -7 -25z m1445
10 c-3 -9 -8 -14 -10 -11 -3 3 -2 9 2 15 9 16 15 13 8 -4z m-848 -50 c-43 -30
-101 -94 -168 -185 -18 -25 -18 -25 -1 5 50 86 173 214 208 215 5 0 -12 -16
-39 -35z m-71 -3 c-16 -15 -52 -54 -78 -87 -55 -68 -63 -76 -51 -55 18 32 106
138 127 153 35 25 36 20 2 -11z m884 -17 c-12 -24 -23 -43 -26 -41 -4 5 36 86
43 86 3 0 -5 -20 -17 -45z m-1405 -30 c-15 -30 -29 -53 -31 -51 -4 5 46 106
53 106 3 0 -7 -25 -22 -55z m1907 25 c-6 -11 -13 -20 -16 -20 -2 0 0 9 6 20 6
11 13 20 16 20 2 0 0 -9 -6 -20z m-1972 -78 c-17 -45 -33 -80 -35 -78 -2 2 10
41 27 86 18 45 34 80 36 78 2 -2 -11 -41 -28 -86z m1413 17 c-5 -13 -10 -19
-10 -12 -1 15 10 45 15 40 3 -2 0 -15 -5 -28z m512 -29 c-15 -33 -28 -58 -30
-56 -5 4 44 116 51 116 2 0 -7 -27 -21 -60z m-497 3 c-8 -15 -15 -25 -16 -21
0 12 23 58 27 54 3 -2 -2 -17 -11 -33z m525 -39 c-16 -33 -30 -56 -31 -52 0
11 53 118 58 114 2 -2 -10 -30 -27 -62z m-171 -40 c-16 -43 -30 -85 -30 -92 0
-7 -5 -10 -11 -6 -8 4 -9 -1 -5 -17 6 -20 5 -21 -4 -7 -8 13 -1 38 32 112 23
52 44 94 45 92 2 -2 -10 -39 -27 -82z m-1759 49 c-12 -20 -14 -14 -5 12 4 9 9
14 11 11 3 -2 0 -13 -6 -23z m-20 -50 c-12 -20 -14 -14 -5 12 4 9 9 14 11 11
3 -2 0 -13 -6 -23z m1390 -4 c-5 -13 -10 -19 -10 -12 -1 15 10 45 15 40 3 -2
0 -15 -5 -28z m-1440 -30 c-5 -13 -10 -19 -10 -12 -1 15 10 45 15 40 3 -2 0
-15 -5 -28z m467 6 c-6 -14 -13 -23 -15 -21 -5 5 15 46 22 46 3 0 -1 -11 -7
-25z m-437 -22 c-12 -20 -14 -14 -5 12 4 9 9 14 11 11 3 -2 0 -13 -6 -23z
m1889 -10 c-11 -17 -11 -17 -6 0 3 10 6 24 7 30 0 9 2 9 5 0 3 -7 0 -20 -6
-30z m26 -39 c-14 -38 -25 -64 -25 -58 -1 15 40 136 45 131 2 -2 -7 -35 -20
-73z m-1458 11 c-12 -24 -23 -43 -26 -41 -4 5 36 86 43 86 3 0 -5 -20 -17 -45z
m-258 24 c0 8 2 12 5 9 9 -9 -7 -38 -17 -32 -6 4 -8 -2 -4 -17 5 -18 5 -20 -3
-8 -6 8 -7 26 -4 38 4 17 8 19 14 9 7 -11 9 -10 9 1z m-243 -21 c-3 -8 -6 -5
-6 6 -1 11 2 17 5 13 3 -3 4 -12 1 -19z m444 -39 c-11 -30 -20 -49 -20 -43 -1
15 30 106 35 101 2 -2 -5 -28 -15 -58z m-421 14 c-11 -17 -11 -17 -6 0 3 10 6
24 7 30 0 9 2 9 5 0 3 -7 0 -20 -6 -30z m1881 -69 c-11 -43 -20 -72 -20 -64
-2 22 33 164 36 153 2 -5 -5 -45 -16 -89z m-1914 54 c-3 -8 -6 -5 -6 6 -1 11
2 17 5 13 3 -3 4 -12 1 -19z m224 -35 c-14 -29 -71 -262 -72 -302 -1 -25 -3
-29 -6 -12 -9 47 53 335 70 324 5 -3 6 5 3 18 -6 20 -5 21 4 7 7 -12 8 -24 1
-35z m1579 4 c0 -5 -4 -5 -10 -2 -5 3 -10 14 -10 23 0 15 2 15 10 2 5 -8 10
-19 10 -23z m-1783 1 c-3 -8 -6 -5 -6 6 -1 11 2 17 5 13 3 -3 4 -12 1 -19z
m-30 -10 c-3 -8 -6 -5 -6 6 -1 11 2 17 5 13 3 -3 4 -12 1 -19z m1803 -26 c0
-15 -2 -15 -10 -2 -13 20 -13 33 0 25 6 -3 10 -14 10 -23z m-1783 -4 c-3 -8
-6 -5 -6 6 -1 11 2 17 5 13 3 -3 4 -12 1 -19z m1930 0 c-3 -8 -6 -5 -6 6 -1
11 2 17 5 13 3 -3 4 -12 1 -19z m210 0 c-3 -8 -6 -5 -6 6 -1 11 2 17 5 13 3
-3 4 -12 1 -19z m-2170 -20 c-3 -7 -5 -2 -5 12 0 14 2 19 5 13 2 -7 2 -19 0
-25z m1802 -18 c0 -10 -3 -8 -9 5 -12 27 -12 43 0 25 5 -8 9 -22 9 -30z m148
-12 c-3 -7 -5 -2 -5 12 0 14 2 19 5 13 2 -7 2 -19 0 -25z m202 -59 c-6 -46
-14 -91 -17 -99 -3 -8 -7 -32 -7 -53 -3 -58 -15 -57 -15 1 0 29 4 52 10 52 5
0 7 7 4 15 -6 14 26 179 32 172 2 -2 -1 -41 -7 -88z m-2132 59 c-3 -8 -6 -5
-6 6 -1 11 2 17 5 13 3 -3 4 -12 1 -19z m420 0 c-3 -8 -6 -5 -6 6 -1 11 2 17
5 13 3 -3 4 -12 1 -19z m1352 -28 c0 -9 -4 -8 -9 5 -5 11 -9 27 -9 35 0 9 4 8
9 -5 5 -11 9 -27 9 -35z m-1322 18 c-3 -8 -6 -5 -6 6 -1 11 2 17 5 13 3 -3 4
-12 1 -19z m-480 -10 c-3 -8 -6 -5 -6 6 -1 11 2 17 5 13 3 -3 4 -12 1 -19z
m440 -20 c-3 -8 -6 -5 -6 6 -1 11 2 17 5 13 3 -3 4 -12 1 -19z m1340 0 c-3 -8
-6 -5 -6 6 -1 11 2 17 5 13 3 -3 4 -12 1 -19z m140 -40 c-2 -13 -4 -3 -4 22 0
25 2 35 4 23 2 -13 2 -33 0 -45z m30 30 c-3 -7 -5 -2 -5 12 0 14 2 19 5 13 2
-7 2 -19 0 -25z m-1930 -10 c-3 -7 -5 -2 -5 12 0 14 2 19 5 13 2 -7 2 -19 0
-25z m450 0 c-3 -7 -5 -2 -5 12 0 14 2 19 5 13 2 -7 2 -19 0 -25z m-480 -35
c-3 -10 -5 -2 -5 17 0 19 2 27 5 18 2 -10 2 -26 0 -35z m1571 -42 c-7 -39 -15
-66 -19 -59 -6 12 21 141 28 134 2 -2 -2 -35 -9 -75z m209 47 c-3 -7 -5 -2 -5
12 0 14 2 19 5 13 2 -7 2 -19 0 -25z m20 0 c-3 -7 -5 -2 -5 12 0 14 2 19 5 13
2 -7 2 -19 0 -25z m-1367 -128 c-7 -140 -7 -141 -8 -44 -2 88 6 200 13 192 1
-2 -1 -68 -5 -148z m1517 103 c-3 -10 -5 -2 -5 17 0 19 2 27 5 18 2 -10 2 -26
0 -35z m-1480 0 c-3 -10 -5 -4 -5 12 0 17 2 24 5 18 2 -7 2 -21 0 -30z m-450
-5 c-3 -8 -6 -5 -6 6 -1 11 2 17 5 13 3 -3 4 -12 1 -19z m1900 -200 c-1 -40
-3 -8 -3 72 0 80 2 112 3 73 2 -40 2 -106 0 -145z m-130 165 c-3 -10 -5 -4 -5
12 0 17 2 24 5 18 2 -7 2 -21 0 -30z m-1800 -35 c-2 -13 -4 -3 -4 22 0 25 2
35 4 23 2 -13 2 -33 0 -45z m1780 10 c-2 -13 -4 -5 -4 17 -1 22 1 32 4 23 2
-10 2 -28 0 -40z m-1307 -65 l-5 -108 -3 94 c-2 83 1 121 10 121 2 0 1 -48 -2
-107z m1477 -10 c-2 -21 -4 -4 -4 37 0 41 2 58 4 38 2 -21 2 -55 0 -75z
m-1930 65 c-3 -7 -5 -2 -5 12 0 14 2 19 5 13 2 -7 2 -19 0 -25z m1530 -30 c-3
-8 -6 -5 -6 6 -1 11 2 17 5 13 3 -3 4 -12 1 -19z m220 -185 c-2 -37 -3 -9 -3
62 0 72 1 102 3 68 2 -34 2 -93 0 -130z m-1759 75 c-1 -84 -2 -94 -8 -53 -6
44 -2 155 6 155 2 0 3 -46 2 -102z m1529 70 c-3 -8 -6 -5 -6 6 -1 11 2 17 5
13 3 -3 4 -12 1 -19z m20 -15 c-3 -10 -5 -4 -5 12 0 17 2 24 5 18 2 -7 2 -21
0 -30z m230 -30 c-2 -16 -4 -5 -4 22 0 28 2 40 4 28 2 -13 2 -35 0 -50z
m-1433 -230 c5 -19 3 -39 -4 -50 -9 -15 -10 -13 -7 15 2 18 0 35 -5 38 -4 3
-7 69 -6 147 l1 142 7 -130 c4 -71 10 -144 14 -162z m-167 205 c-2 -13 -4 -5
-4 17 -1 22 1 32 4 23 2 -10 2 -28 0 -40z m1340 20 c-3 -7 -5 -2 -5 12 0 14 2
19 5 13 2 -7 2 -19 0 -25z m20 -80 c-2 -18 -4 -4 -4 32 0 36 2 50 4 33 2 -18
2 -48 0 -65z m401 12 c-3 -43 -2 -77 2 -75 4 3 10 -24 14 -59 9 -86 31 -169
66 -243 33 -71 32 -86 -1 -21 -59 115 -100 297 -92 406 3 39 8 72 11 72 2 0 2
-36 0 -80z m219 -7 c-2 -16 -4 -3 -4 27 0 30 2 43 4 28 2 -16 2 -40 0 -55z
m-650 -10 c-3 -10 -5 -2 -5 17 0 19 2 27 5 18 2 -10 2 -26 0 -35z m-1040 -20
c-3 -10 -5 -2 -5 17 0 19 2 27 5 18 2 -10 2 -26 0 -35z m1320 -35 c-2 -18 -4
-6 -4 27 0 33 2 48 4 33 2 -15 2 -42 0 -60z m350 20 c-2 -13 -4 -3 -4 22 0 25
2 35 4 23 2 -13 2 -33 0 -45z m-1700 15 c-3 -10 -5 -4 -5 12 0 17 2 24 5 18 2
-7 2 -21 0 -30z m256 -178 c8 -27 22 -67 31 -89 11 -28 13 -43 5 -55 -8 -13
-9 -11 -3 8 4 18 3 22 -7 16 -9 -6 -11 -3 -6 8 3 10 3 17 -2 17 -12 0 -49 153
-55 230 l-6 65 15 -75 c7 -41 20 -97 28 -125z m-216 118 c-3 -10 -5 -4 -5 12
0 17 2 24 5 18 2 -7 2 -21 0 -30z m1020 -160 c-2 -38 -3 -7 -3 67 0 74 1 105
3 68 2 -38 2 -98 0 -135z m670 160 c-3 -10 -5 -4 -5 12 0 17 2 24 5 18 2 -7 2
-21 0 -30z m-1690 -128 c-4 -11 -38 126 -36 147 0 7 9 -21 20 -62 11 -41 18
-79 16 -85z m1686 20 c4 -35 4 -42 -2 -23 -5 14 -11 55 -14 90 -5 48 -4 53 2
23 5 -22 11 -62 14 -90z m-636 -27 c-2 -29 -3 -8 -3 47 0 55 1 79 3 53 2 -26
2 -71 0 -100z m256 -3 c6 -40 5 -44 -3 -20 -5 17 -12 59 -14 95 -4 53 -4 57 3
20 4 -25 11 -67 14 -95z m30 -10 c5 -35 4 -34 -7 10 -8 28 -14 68 -14 90 0 38
1 38 8 -10 4 -27 10 -68 13 -90z m-1326 93 c-3 -7 -5 -2 -5 12 0 14 2 19 5 13
2 -7 2 -19 0 -25z m1701 -28 c0 -9 -3 -7 -8 5 -5 11 -8 29 -8 40 0 16 2 15 8
-5 4 -14 8 -32 8 -40z m-1680 -55 c0 -16 -2 -15 -8 5 -4 14 -8 34 -8 45 0 16
2 15 8 -5 4 -14 8 -34 8 -45z m1734 -74 c15 -35 27 -66 25 -68 -5 -4 -62 123
-71 157 l-6 25 12 -25 c6 -14 24 -54 40 -89z m-1891 58 c-6 -16 -10 -18 -10
-7 -1 22 12 55 16 42 2 -6 -1 -22 -6 -35z m148 -39 c0 -9 -4 -8 -9 5 -5 11 -9
27 -9 35 0 9 4 8 9 -5 5 -11 9 -27 9 -35z m-135 6 c-3 -15 -8 -25 -11 -23 -2
3 -1 17 3 31 3 15 8 25 11 23 2 -3 1 -17 -3 -31z m-174 -101 c6 -30 6 -64 1
-85 l-9 -35 0 45 c-1 25 -3 74 -6 110 -2 36 -3 54 0 40 2 -14 8 -47 14 -75z
m195 23 l2 -63 -13 44 c-8 24 -11 55 -8 68 10 37 16 20 19 -49z m197 -137 c-3
-9 -1 -12 6 -7 8 5 10 1 5 -11 -3 -10 -3 -15 2 -11 4 4 30 -31 56 -79 27 -47
60 -100 73 -117 64 -81 74 -97 31 -51 -80 86 -227 326 -211 343 3 3 6 -1 6 -8
0 -7 3 -11 6 -8 3 4 -4 36 -15 73 -33 107 -23 100 13 -10 18 -55 31 -106 28
-114z m1237 125 c12 -43 20 -81 18 -83 -4 -4 -47 144 -47 162 0 20 9 -5 29
-79z m8 62 c-3 -8 -6 -5 -6 6 -1 11 2 17 5 13 3 -3 4 -12 1 -19z m-1291 -105
c-5 -5 -36 86 -35 101 0 6 9 -13 20 -43 10 -30 17 -56 15 -58z m1002 46 c-3
-33 -4 -33 -8 8 -3 23 -2 39 3 34 5 -5 7 -24 5 -42z m311 -9 c0 -9 -4 -8 -9 5
-5 11 -9 27 -9 35 0 9 4 8 9 -5 5 -11 9 -27 9 -35z m-336 -55 c4 -66 3 -77 -3
-40 -9 52 -13 141 -6 134 2 -2 6 -44 9 -94z m802 -97 c56 -71 122 -119 136
-97 14 22 11 37 -9 44 -28 8 -124 107 -150 154 -31 54 -21 53 11 -2 25 -42 99
-117 147 -148 24 -16 24 -17 10 -49 l-16 -32 -52 42 c-57 44 -130 136 -168
212 -37 73 -28 71 11 -2 19 -36 55 -91 80 -122z m-1891 98 c15 -38 24 -71 22
-73 -4 -4 -35 72 -51 127 -14 47 3 15 29 -54z m336 45 c8 -15 8 -21 1 -17 -6
4 -11 1 -11 -6 -1 -8 -4 -7 -10 4 -6 9 -7 24 -4 33 7 18 7 18 24 -14z m1164
-203 c9 -21 14 -38 11 -38 -10 0 -86 201 -84 224 0 6 13 -25 29 -69 15 -44 35
-97 44 -117z m-376 136 c-3 -27 -4 -26 -9 8 -3 22 -1 34 4 29 5 -5 7 -21 5
-37z m-753 6 c9 -16 13 -30 11 -30 -3 0 -12 14 -21 30 -9 17 -13 30 -11 30 3
0 12 -13 21 -30z m-20 -17 c31 -74 130 -217 195 -281 47 -47 55 -51 61 -35 6
14 8 12 8 -10 l1 -28 -41 33 c-48 39 -119 127 -177 219 -41 65 -77 139 -67
139 2 0 12 -17 20 -37z m-557 -53 c0 -9 -3 -7 -8 5 -5 11 -8 29 -8 40 0 16 2
15 8 -5 4 -14 8 -32 8 -40z m212 -2 c75 -206 232 -434 408 -591 100 -89 132
-112 131 -95 0 7 -32 38 -70 68 -91 71 -191 177 -257 274 -29 42 -51 76 -48
76 2 0 30 -37 62 -82 63 -90 180 -212 268 -278 33 -25 56 -50 56 -61 0 -11 -4
-19 -8 -19 -14 0 -142 110 -222 191 -133 136 -261 334 -325 504 -25 67 -28 75
-21 75 2 0 14 -28 26 -62z m1439 -7 c11 -30 19 -57 17 -59 -4 -3 -46 102 -46
115 0 14 9 -4 29 -56z m-1039 19 c6 -11 8 -20 6 -20 -3 0 -10 9 -16 20 -6 11
-8 20 -6 20 3 0 10 -9 16 -20z m580 -87 c-11 -17 -11 -17 -6 0 3 10 7 40 8 65
l2 47 3 -47 c2 -26 -1 -56 -7 -65z m147 60 c-3 -10 -5 -2 -5 17 0 19 2 27 5
18 2 -10 2 -26 0 -35z m-1360 -10 c-3 -10 -5 -4 -5 12 0 17 2 24 5 18 2 -7 2
-21 0 -30z m273 -8 c0 -5 -5 -3 -10 5 -5 8 -10 20 -10 25 0 6 5 3 10 -5 5 -8
10 -19 10 -25z m1057 -12 c-3 -10 -5 -4 -5 12 0 17 2 24 5 18 2 -7 2 -21 0
-30z m-1289 -33 c0 -9 -3 -7 -8 5 -5 11 -8 29 -8 40 0 16 2 15 8 -5 4 -14 8
-32 8 -40z m623 43 c13 -16 12 -17 -3 -4 -10 7 -18 15 -18 17 0 8 8 3 21 -13z
m706 -35 c-3 -7 -5 -2 -5 12 0 14 2 19 5 13 2 -7 2 -19 0 -25z m-1360 0 c-3
-8 -6 -5 -6 6 -1 11 2 17 5 13 3 -3 4 -12 1 -19z m293 -22 c0 -6 -7 -1 -15 10
-8 10 -15 23 -15 28 0 6 7 1 15 -10 8 -10 15 -23 15 -28z m395 14 c10 -11 16
-20 13 -20 -3 0 -13 9 -23 20 -10 11 -16 20 -13 20 3 0 13 -9 23 -20z m642
-37 c-3 -10 -5 -4 -5 12 0 17 2 24 5 18 2 -7 2 -21 0 -30z m409 -55 c19 -38
32 -68 29 -68 -4 0 -76 132 -83 155 -8 23 21 -24 54 -87z m-521 -106 c-11
-108 -17 -61 -8 69 7 103 9 113 11 59 2 -36 0 -93 -3 -128z m-1208 146 c-3 -7
-5 -2 -5 12 0 14 2 19 5 13 2 -7 2 -19 0 -25z m30 10 c-3 -8 -6 -5 -6 6 -1 11
2 17 5 13 3 -3 4 -12 1 -19z m1133 -27 c-28 -56 -35 -52 -8 4 12 24 23 43 26
41 2 -2 -6 -22 -18 -45z m197 12 c-3 -10 -5 -4 -5 12 0 17 2 24 5 18 2 -7 2
-21 0 -30z m-1042 -23 c14 -27 23 -50 20 -50 -2 0 -16 23 -30 50 -14 28 -23
50 -20 50 2 0 16 -22 30 -50z m489 -48 c16 -12 27 -24 25 -27 -3 -2 -34 24
-70 58 -36 34 -48 46 -25 27 23 -19 54 -45 70 -58z m-755 23 c0 -5 -4 -3 -9 5
-5 8 -9 22 -9 30 0 16 17 -16 18 -35z m1289 -50 c-1 -31 -16 35 -16 70 0 25 2
24 9 -10 4 -22 8 -49 7 -60z m412 74 c0 -5 24 -50 54 -99 30 -50 50 -88 45
-84 -10 6 -101 159 -112 187 -4 11 -3 16 3 12 6 -3 10 -11 10 -16z m-1726 -41
c8 -29 13 -54 11 -56 -2 -2 -11 20 -19 49 -18 58 -18 59 -12 59 3 0 11 -23 20
-52z m1343 10 c-3 -7 -5 -2 -5 12 0 14 2 19 5 13 2 -7 2 -19 0 -25z m-253 -38
c-10 -16 -20 -28 -22 -26 -4 5 28 56 35 56 2 0 -4 -13 -13 -30z m-1029 -44
c10 -27 46 -105 81 -174 35 -69 62 -127 61 -129 -8 -8 -177 340 -177 365 0 15
18 -17 35 -62z m1292 2 c-2 -13 -4 -3 -4 22 0 25 2 35 4 23 2 -13 2 -33 0 -45z
m-1017 32 c6 -11 8 -20 6 -20 -3 0 -10 9 -16 20 -6 11 -8 20 -6 20 3 0 10 -9
16 -20z m800 6 c0 -2 -8 -10 -17 -17 -16 -13 -17 -12 -4 4 13 16 21 21 21 13z
m620 -36 c6 -11 8 -20 6 -20 -3 0 -10 9 -16 20 -6 11 -8 20 -6 20 3 0 10 -9
16 -20z m-428 -15 c3 -13 1 -22 -3 -19 -9 5 -13 44 -5 44 2 0 6 -11 8 -25z
m-1292 -20 c0 -5 -5 -3 -10 5 -5 8 -10 20 -10 25 0 6 5 3 10 -5 5 -8 10 -19
10 -25z m1050 10 c-13 -14 -26 -23 -28 -20 -4 4 38 44 47 45 3 0 -6 -11 -19
-25z m722 -58 c20 -29 69 -88 111 -132 59 -63 78 -77 88 -68 10 10 10 15 -1
28 -11 13 -10 14 4 9 13 -5 16 -13 11 -33 -4 -14 -9 -28 -11 -30 -12 -12 -176
168 -229 252 -32 50 -8 28 27 -26z m-165 -190 c36 -48 80 -100 98 -115 18 -15
61 -67 96 -117 84 -121 195 -233 270 -276 41 -22 56 -35 44 -37 -10 -2 -21 1
-25 8 -4 6 -23 21 -43 33 -70 43 -188 168 -257 272 -19 28 -66 85 -106 128
-40 42 -96 111 -123 153 -53 78 -67 84 -30 13 11 -23 18 -43 16 -45 -7 -7 -55
107 -66 156 -16 71 -13 69 25 -10 19 -41 65 -114 101 -163z m-1541 96 c19 -40
31 -73 29 -73 -5 0 -95 189 -95 199 1 9 29 -45 66 -126z m1231 70 c-3 -10 -5
-2 -5 17 0 19 2 27 5 18 2 -10 2 -26 0 -35z m30 0 c-3 -10 -5 -4 -5 12 0 17 2
24 5 18 2 -7 2 -21 0 -30z m584 -96 c19 -18 26 -25 15 -17 -39 27 -88 75 -108
105 -12 18 -5 14 19 -13 21 -24 54 -57 74 -75z m-604 -59 c-2 -24 -4 -7 -4 37
0 44 2 63 4 43 2 -21 2 -57 0 -80z m30 50 c-2 -13 -4 -3 -4 22 0 25 2 35 4 23
2 -13 2 -33 0 -45z m0 -60 c-3 -8 -6 -5 -6 6 -1 11 2 17 5 13 3 -3 4 -12 1
-19z m239 -30 c9 -18 34 -55 56 -83 l40 -50 -42 45 c-38 41 -88 120 -75 120 2
0 12 -15 21 -32z m-279 -30 c-3 -8 -6 -5 -6 6 -1 11 2 17 5 13 3 -3 4 -12 1
-19z m33 -48 l-11 -25 6 25 c2 14 5 36 6 50 l2 25 4 -25 c2 -14 -1 -37 -7 -50z
m-1150 -20 c22 -44 38 -80 35 -80 -3 0 -23 36 -45 80 -22 44 -38 80 -35 80 3
0 23 -36 45 -80z m30 20 c17 -33 28 -60 25 -60 -2 0 -18 27 -35 60 -17 33 -28
60 -25 60 2 0 18 -27 35 -60z m-175 11 c9 -18 12 -30 6 -27 -7 5 -11 -9 -12
-41 0 -26 -2 -43 -4 -38 -4 12 -14 147 -10 143 1 -2 10 -18 20 -37z m1239 -33
c-9 -18 -28 -45 -42 -60 -22 -24 -23 -28 -8 -28 28 0 56 19 76 53 11 18 20 26
20 19 0 -8 -15 -29 -34 -48 -29 -29 -41 -34 -77 -33 -34 0 -39 2 -23 9 28 11
70 63 86 106 7 19 14 31 16 25 2 -5 -4 -25 -14 -43z m-1195 -63 c0 -5 -6 1
-14 15 -8 14 -14 30 -14 35 0 6 6 -1 14 -15 8 -14 14 -29 14 -35z m1956 -331
c16 -7 23 -13 13 -14 -30 0 -116 83 -327 315 -25 28 28 -26 119 -119 90 -93
178 -175 195 -182z m-1754 285 c16 -34 29 -63 27 -65 -2 -2 -18 26 -36 61 -17
36 -30 65 -27 65 3 0 19 -27 36 -61z m1242 -124 c-9 -130 -18 -114 -18 36 0
128 1 135 12 92 7 -29 10 -78 6 -128z m-1506 123 c-3 -8 -6 -5 -6 6 -1 11 2
17 5 13 3 -3 4 -12 1 -19z m20 0 c-3 -8 -6 -5 -6 6 -1 11 2 17 5 13 3 -3 4
-12 1 -19z m54 -3 c5 4 9 -2 9 -12 0 -10 3 -29 6 -43 3 -14 -6 -2 -20 25 -26
49 -35 77 -15 42 6 -9 14 -15 20 -12z m181 -60 c22 -47 39 -87 37 -89 -2 -2
-23 36 -46 85 -23 49 -39 89 -37 89 3 0 23 -38 46 -85z m292 -46 c78 -53 92
-66 97 -95 3 -18 2 -31 -3 -28 -4 3 -8 17 -9 32 0 23 -15 36 -87 84 -48 31
-89 54 -92 51 -5 -5 66 -74 115 -111 25 -19 26 -21 5 -11 -36 18 -143 128
-163 168 -23 46 -22 47 14 6 17 -19 72 -63 123 -96z m-537 69 c-3 -8 -6 -5 -6
6 -1 11 2 17 5 13 3 -3 4 -12 1 -19z m-15 -50 c-8 -8 -9 -4 -5 13 4 13 8 18
11 10 2 -7 -1 -18 -6 -23z m353 -113 c3 -16 -6 -1 -19 35 -14 36 -25 67 -25
70 1 11 38 -77 44 -105z m1172 23 c-2 -18 -4 -6 -4 27 0 33 2 48 4 33 2 -15 2
-42 0 -60z m-1200 -70 c-3 -8 -6 -5 -6 6 -1 11 2 17 5 13 3 -3 4 -12 1 -19z
m3 -125 c-11 -17 -11 -17 -6 0 3 10 7 40 8 65 l2 47 3 -47 c2 -26 -1 -56 -7
-65z m59 23 c1 -57 -5 -40 -12 29 -3 37 -2 51 3 35 4 -14 8 -43 9 -64z m242
-87 c14 -20 15 -26 4 -26 -8 0 -12 4 -9 8 2 4 1 9 -4 11 -4 1 -19 19 -32 38
l-24 35 23 -20 c13 -11 31 -32 42 -46z m-260 18 c-10 -9 -11 -8 -5 6 3 10 9
15 12 12 3 -3 0 -11 -7 -18z m-31 -36 c-31 -24 -76 -35 -59 -15 6 8 15 11 20
8 5 -3 19 2 31 10 32 22 38 19 8 -3z m693 7 c30 0 36 -2 22 -8 -15 -5 -8 -9
30 -15 28 -4 45 -10 38 -12 -17 -6 -135 25 -148 39 -7 8 -6 9 3 3 8 -4 33 -7
55 -7z m110 -15 c-7 -2 -21 -2 -30 0 -10 3 -4 5 12 5 17 0 24 -2 18 -5z m81
-11 c3 -5 -8 -6 -25 -4 -16 2 -29 6 -29 8 0 8 49 4 54 -4z m-548 -38 c21 -49
16 -55 -7 -9 -15 31 -18 34 -14 13 7 -36 0 -36 -13 0 -15 43 16 38 34 -4z
m501 20 c-3 -3 -12 -4 -19 -1 -8 3 -5 6 6 6 11 1 17 -2 13 -5z m-503 -89 c5
-22 4 -26 -4 -15 -5 8 -10 24 -10 34 0 26 6 18 14 -19z m23 -7 c-3 -8 -6 -5
-6 6 -1 11 2 17 5 13 3 -3 4 -12 1 -19z"/>
<path d="M6282 8513 c-11 -21 -25 -56 -32 -78 -7 -22 -41 -105 -75 -185 -35
-80 -92 -217 -128 -305 -36 -88 -95 -230 -132 -315 -37 -85 -93 -216 -125
-290 -32 -74 -93 -214 -135 -310 -43 -96 -108 -247 -145 -335 -37 -88 -162
-378 -277 -645 -116 -267 -228 -528 -251 -580 -22 -52 -79 -182 -126 -289 -54
-120 -86 -204 -84 -220 2 -21 16 -32 68 -59 122 -61 471 -212 1390 -602 179
-76 429 -184 555 -240 245 -107 256 -110 283 -59 17 35 275 635 484 1129 98
234 219 517 267 630 49 113 137 320 196 460 59 140 154 363 210 495 307 719
355 834 355 853 0 11 -6 24 -12 30 -12 9 -376 168 -653 284 -66 28 -275 118
-465 201 -190 82 -464 198 -610 257 -147 59 -318 131 -380 159 -63 28 -125 51
-137 51 -16 0 -28 -11 -41 -37z m462 -251 c3 -5 -1 -9 -9 -9 -8 0 -15 4 -15 9
0 4 4 8 9 8 6 0 12 -4 15 -8z m-81 -9 c-13 -2 -35 -2 -50 0 -16 2 -5 4 22 4
28 0 40 -2 28 -4z m180 0 c-13 -2 -33 -2 -45 0 -13 2 -3 4 22 4 25 0 35 -2 23
-4z m-298 -13 c-16 -4 -41 -8 -55 -8 -22 0 -22 1 5 8 17 4 41 8 55 8 22 0 22
-1 -5 -8z m490 0 c17 -4 -10 -5 -60 -2 -49 3 -92 6 -94 8 -8 7 124 2 154 -6z
m-582 -17 c-7 -2 -19 -2 -25 0 -7 3 -2 5 12 5 14 0 19 -2 13 -5z m395 0 c-21
-2 -57 -2 -80 0 -24 2 -7 4 37 4 44 0 63 -2 43 -4z m-488 -18 c-30 -8 -59 -14
-65 -14 -20 2 71 27 95 27 14 0 0 -6 -30 -13z m313 8 c-13 -2 -35 -2 -50 0
-16 2 -5 4 22 4 28 0 40 -2 28 -4z m310 0 c-13 -2 -33 -2 -45 0 -13 2 -3 4 22
4 25 0 35 -2 23 -4z m-405 -10 c-10 -2 -28 -2 -40 0 -13 2 -5 4 17 4 22 1 32
-1 23 -4z m495 0 c-7 -2 -21 -2 -30 0 -10 3 -4 5 12 5 17 0 24 -2 18 -5z
m-580 -10 c-7 -2 -21 -2 -30 0 -10 3 -4 5 12 5 17 0 24 -2 18 -5z m676 -4 c48
-17 33 -19 -24 -4 -27 8 -41 14 -29 14 12 1 35 -4 53 -10z m-919 -14 c-46 -18
-64 -17 -25 0 17 8 37 14 45 14 8 0 -1 -7 -20 -14z m183 8 c-7 -2 -19 -2 -25
0 -7 3 -2 5 12 5 14 0 19 -2 13 -5z m-152 -44 c-47 -16 -86 -27 -88 -25 -5 5
137 54 157 54 8 0 -23 -13 -69 -29z m-92 17 c-2 -2 -15 -9 -29 -15 -24 -11
-24 -11 -6 3 16 13 49 24 35 12z m-19 -56 c-8 -5 -19 -10 -25 -10 -5 0 -3 5 5
10 8 5 20 10 25 10 6 0 3 -5 -5 -10z m648 -77 c-27 -2 -69 -2 -95 0 -27 2 -5
3 47 3 52 0 74 -1 48 -3z m-165 -10 c-13 -2 -33 -2 -45 0 -13 2 -3 4 22 4 25
0 35 -2 23 -4z m265 0 c-10 -2 -26 -2 -35 0 -10 3 -2 5 17 5 19 0 27 -2 18 -5z
m-350 -10 c-10 -2 -26 -2 -35 0 -10 3 -2 5 17 5 19 0 27 -2 18 -5z m420 0
c-10 -2 -26 -2 -35 0 -10 3 -2 5 17 5 19 0 27 -2 18 -5z m-498 -13 c-34 -11
-60 -11 -35 0 11 5 29 8 40 8 16 0 15 -2 -5 -8z m415 -10 c43 -10 -23 -5 -155
11 -54 7 -50 7 25 3 50 -3 108 -9 130 -14z m132 14 c-3 -3 -12 -4 -19 -1 -8 3
-5 6 6 6 11 1 17 -2 13 -5z m-389 -11 c-16 -2 -40 -2 -55 0 -16 2 -3 4 27 4
30 0 43 -2 28 -4z m457 -3 c25 -11 -1 -11 -35 0 -20 6 -21 8 -5 8 11 0 29 -3
40 -8z m-690 -10 l-20 -9 20 -1 c16 -1 15 -3 -7 -11 -19 -7 -33 -7 -45 0 -15
9 -13 10 12 6 17 -3 24 -2 16 1 -11 5 -11 8 0 15 8 5 21 8 29 8 10 0 8 -3 -5
-9z m138 3 c-7 -2 -21 -2 -30 0 -10 3 -4 5 12 5 17 0 24 -2 18 -5z m-70 -10
c-7 -2 -19 -2 -25 0 -7 3 -2 5 12 5 14 0 19 -2 13 -5z m515 0 c-10 -2 -26 -2
-35 0 -10 3 -2 5 17 5 19 0 27 -2 18 -5z m49 -9 c-3 -3 -12 -4 -19 -1 -8 3 -5
6 6 6 11 1 17 -2 13 -5z m-697 -14 c11 -8 7 -9 -15 -4 -23 4 -27 3 -15 -5 12
-9 8 -10 -15 -5 -20 4 -26 2 -17 -4 10 -6 0 -13 -35 -22 -26 -7 -93 -33 -147
-56 -55 -24 -101 -42 -103 -41 -7 7 208 108 217 102 6 -3 10 -1 10 5 0 7 8 9
21 5 14 -5 19 -3 15 3 -3 6 6 15 21 20 37 14 45 14 63 2z m737 4 c-3 -3 -12
-4 -19 -1 -8 3 -5 6 6 6 11 1 17 -2 13 -5z m226 -45 c42 -22 77 -41 77 -44 0
-3 -35 12 -77 33 -43 21 -89 44 -103 50 l-25 12 25 -6 c14 -4 60 -24 103 -45z
m-183 31 c8 -5 11 -10 5 -10 -5 0 -17 5 -25 10 -8 5 -10 10 -5 10 6 0 17 -5
25 -10z m675 -20 c10 -11 22 -17 28 -13 5 3 7 2 4 -4 -4 -5 7 -23 24 -39 17
-16 40 -42 51 -59 12 -16 -7 0 -41 37 -35 38 -72 75 -84 83 -12 8 -17 15 -11
15 6 0 19 -9 29 -20z m-595 -12 c10 -6 7 -7 -10 -2 -14 3 -32 11 -40 16 -10 6
-7 7 10 2 14 -3 32 -11 40 -16z m102 -43 c96 -44 220 -136 281 -207 49 -57
147 -212 147 -232 0 -6 -21 26 -48 71 -101 174 -186 256 -367 350 -115 60
-121 68 -13 18z m613 -2 c77 -83 177 -257 220 -384 37 -108 29 -108 -10 -1
-18 51 -48 121 -66 155 -41 80 -133 210 -166 237 -14 11 -21 20 -15 20 6 0 23
-12 37 -27z m-378 -118 c82 -76 203 -233 237 -305 18 -39 15 -35 -69 93 -63
97 -201 245 -272 292 -50 32 -57 44 -12 18 18 -10 70 -54 116 -98z m-792 64
c-22 -4 -56 -7 -75 -7 -32 1 -31 2 10 8 25 4 59 7 75 7 25 1 23 -1 -10 -8z
m248 4 c-13 -2 -33 -2 -45 0 -13 2 -3 4 22 4 25 0 35 -2 23 -4z m54 -9 c-3 -3
-12 -4 -19 -1 -8 3 -5 6 6 6 11 1 17 -2 13 -5z m-424 -11 c-7 -2 -19 -2 -25 0
-7 3 -2 5 12 5 14 0 19 -2 13 -5z m464 1 c-3 -3 -12 -4 -19 -1 -8 3 -5 6 6 6
11 1 17 -2 13 -5z m-527 -14 l-25 -8 24 -1 c13 -1 22 -4 19 -7 -3 -3 -23 -2
-44 2 -36 7 -37 8 -14 15 14 4 34 7 45 7 16 0 15 -2 -5 -8z m233 3 c-24 -2
-62 -2 -85 0 -24 2 -5 4 42 4 47 0 66 -2 43 -4z m-155 -10 c-10 -2 -26 -2 -35
0 -10 3 -2 5 17 5 19 0 27 -2 18 -5z m255 0 c-7 -2 -21 -2 -30 0 -10 3 -4 5
12 5 17 0 24 -2 18 -5z m302 -27 c84 -47 143 -98 211 -181 47 -57 50 -63 18
-34 -59 55 -101 83 -194 133 -47 25 -81 46 -77 46 11 0 103 -47 150 -77 22
-13 42 -22 45 -18 10 10 -67 70 -153 119 -44 26 -76 46 -71 46 5 0 37 -15 71
-34z m-690 14 c19 -8 19 -9 -2 -9 -12 -1 -25 4 -28 9 -7 12 2 12 30 0z m516
-7 c41 -9 70 -18 64 -19 -5 -2 -46 5 -90 15 -44 11 -73 20 -64 20 9 1 50 -6
90 -16z m947 -40 c73 -108 173 -330 172 -382 -1 -9 -13 22 -29 69 -32 98 -96
230 -153 313 -21 31 -36 57 -34 57 3 0 23 -26 44 -57z m-1502 35 c5 -8 0 -9
-14 -6 -12 4 -22 2 -22 -3 0 -5 -6 -9 -14 -9 -8 0 -50 -13 -92 -30 -55 -21
-81 -27 -89 -19 -7 7 -4 8 10 3 11 -4 17 -3 12 2 -5 5 33 23 85 41 106 36 114
37 124 21z m664 -28 c8 -5 11 -10 5 -10 -5 0 -17 5 -25 10 -8 5 -10 10 -5 10
6 0 17 -5 25 -10z m1215 -38 c-3 -3 -11 0 -18 7 -9 10 -8 11 6 5 10 -3 15 -9
12 -12z m-2121 -10 c9 -15 -65 -45 -78 -32 -8 8 -6 9 9 4 11 -4 16 -3 12 1 -4
5 3 15 15 22 27 15 35 16 42 5z m2136 -37 c0 -5 -5 -3 -10 5 -5 8 -10 20 -10
25 0 6 5 3 10 -5 5 -8 10 -19 10 -25z m53 -2 c3 -16 9 -37 13 -48 4 -11 4 -17
0 -13 -11 9 -37 100 -27 94 5 -3 11 -18 14 -33z m-2282 -16 c-8 -8 -14 -7 -23
2 -11 10 -9 11 6 5 15 -6 17 -4 11 6 -6 9 -4 11 4 5 9 -5 10 -10 2 -18z m-36
-7 c3 -5 -13 -19 -36 -31 -24 -12 -83 -48 -132 -80 -49 -33 -91 -58 -94 -56
-6 6 98 82 108 80 5 -2 9 1 9 6 0 13 83 65 103 63 9 0 15 3 12 8 -4 6 2 7 11
3 12 -4 15 -3 10 5 -4 7 -5 12 -2 12 3 0 7 -4 11 -10z m2289 -40 c5 -17 4 -20
-2 -10 -5 8 -13 26 -16 40 -5 17 -4 20 2 10 5 -8 13 -26 16 -40z m-1601 23
c-13 -2 -35 -2 -50 0 -16 2 -5 4 22 4 28 0 40 -2 28 -4z m-203 -23 c-58 -10
-143 -33 -189 -50 -46 -17 -86 -29 -88 -27 -2 3 36 19 84 36 94 34 206 59 263
59 19 0 -12 -8 -70 -18z m303 13 c-7 -2 -19 -2 -25 0 -7 3 -2 5 12 5 14 0 19
-2 13 -5z m104 -19 c78 -23 61 -26 -22 -4 -39 10 -62 19 -52 19 11 1 44 -6 74
-15z m1450 -26 c-3 -8 -6 -5 -6 6 -1 11 2 17 5 13 3 -3 4 -12 1 -19z m-1614
-5 c-34 -2 -93 -2 -130 0 -37 2 -9 3 62 3 72 0 102 -1 68 -3z m285 -17 c26
-14 56 -32 67 -41 11 -9 -11 1 -50 21 -77 41 -82 44 -71 44 4 0 28 -11 54 -24z
m-500 7 c-10 -2 -26 -2 -35 0 -10 3 -2 5 17 5 19 0 27 -2 18 -5z m395 -13 c76
-24 174 -67 183 -81 3 -6 -20 3 -53 19 -65 33 -138 58 -204 71 -29 6 -35 9
-18 10 15 1 56 -8 92 -19z m-493 -5 c-84 -25 -95 -28 -90 -23 9 10 95 37 115
37 11 -1 0 -7 -25 -14z m1948 -40 c0 -16 -2 -15 -8 5 -11 34 -11 60 0 35 5
-11 8 -29 8 -40z m-39 -5 c0 -9 -4 -8 -9 5 -5 11 -9 27 -9 35 0 9 4 8 9 -5 5
-11 9 -27 9 -35z m-2130 26 c-10 -9 -69 -36 -69 -32 0 7 52 35 64 36 5 0 7 -2
5 -4z m101 -18 c-177 -77 -356 -178 -430 -242 -20 -17 -22 -18 -10 -2 43 56
401 256 455 255 6 0 -1 -5 -15 -11z m305 -17 c-3 -5 3 -12 12 -14 10 -2 5 -3
-11 -1 -16 2 -45 5 -65 5 l-36 2 40 7 c60 11 67 11 60 1z m612 -76 c39 -36 93
-98 119 -137 50 -76 97 -174 92 -190 -2 -6 -15 18 -29 53 -48 121 -135 233
-259 333 -19 15 -26 23 -14 18 11 -6 52 -40 91 -77z m-442 60 c39 -14 39 -14
5 -8 -19 4 -53 10 -75 14 l-40 6 35 1 c19 0 53 -6 75 -13z m-675 0 c0 -2 -10
-9 -22 -15 -22 -11 -22 -10 -4 4 21 17 26 19 26 11z m2237 -27 c-3 -7 -5 -2
-5 12 0 14 2 19 5 13 2 -7 2 -19 0 -25z m40 -35 c-2 -16 -4 -5 -4 22 0 28 2
40 4 28 2 -13 2 -35 0 -50z m-1621 36 c38 -12 109 -41 157 -66 70 -36 101 -60
149 -114 34 -38 64 -67 66 -64 8 8 -88 121 -125 148 -21 16 -47 35 -58 43 -19
14 -19 14 5 3 94 -44 268 -269 243 -314 -6 -10 -16 0 -36 39 -85 162 -232 272
-437 325 -41 11 -65 20 -54 20 12 1 53 -8 90 -20z m124 -14 c25 -13 41 -24 35
-24 -5 0 -30 11 -55 24 -25 13 -40 24 -35 24 6 0 30 -11 55 -24z m328 -44 c45
-37 122 -136 122 -155 0 -6 -12 7 -25 29 -30 49 -118 139 -162 167 -18 11 -33
22 -33 25 0 8 48 -25 98 -66z m456 27 c18 -43 30 -84 23 -78 -9 8 -47 110 -41
110 3 0 11 -15 18 -32z m689 -37 c4 -29 2 -40 -4 -30 -8 13 -14 88 -5 78 2 -2
6 -24 9 -48z m-255 -56 c0 -11 -6 3 -14 30 -7 28 -13 55 -13 60 2 17 27 -69
27 -90z m-2108 81 c0 -2 -39 -33 -87 -68 -85 -62 -230 -192 -283 -252 -63 -73
-80 -88 -44 -41 60 80 212 220 339 313 72 53 75 55 75 48z m1889 -121 c18 -77
21 -239 5 -254 -3 -3 -4 35 -2 84 3 50 2 97 -3 105 -4 8 -12 44 -17 80 -6 36
-14 76 -17 90 l-6 25 11 -25 c6 -14 19 -61 29 -105z m-140 45 c0 -9 -4 -8 -9
5 -5 11 -9 27 -9 35 0 9 4 8 9 -5 5 -11 9 -27 9 -35z m318 -2 c-3 -8 -6 -5 -6
6 -1 11 2 17 5 13 3 -3 4 -12 1 -19z m-1432 -17 c25 -8 20 -9 -30 -5 -217 14
-235 14 -233 2 2 -6 -6 -13 -17 -15 l-20 -3 20 9 c19 9 18 10 -5 11 l-25 2 25
8 c33 10 247 4 285 -9z m-218 -7 c-3 -3 -12 -4 -19 -1 -8 3 -5 6 6 6 11 1 17
-2 13 -5z m1358 -129 c4 -78 4 -79 -4 -15 -4 36 -11 85 -14 110 -6 38 -5 41 3
15 6 -16 12 -66 15 -110z m302 113 c-3 -8 -6 -5 -6 6 -1 11 2 17 5 13 3 -3 4
-12 1 -19z m-1807 -1 c-14 -6 -51 -24 -82 -39 -32 -16 -58 -26 -58 -23 0 8
141 75 155 74 5 0 -1 -5 -15 -12z m1447 -9 c-3 -8 -6 -5 -6 6 -1 11 2 17 5 13
3 -3 4 -12 1 -19z m401 -49 l-3 -54 -5 62 c-3 34 -1 58 3 54 5 -4 7 -32 5 -62z
m-1838 38 c-14 -6 -51 -24 -82 -39 -32 -16 -58 -26 -58 -23 0 8 141 75 155 74
5 0 -1 -5 -15 -12z m1807 -44 c-3 -10 -5 -2 -5 17 0 19 2 27 5 18 2 -10 2 -26
0 -35z m-342 -67 l4 -61 -9 50 c-5 28 -11 66 -14 85 -5 31 -4 32 5 11 5 -14
12 -52 14 -85z m-1905 81 c-8 -8 -38 -34 -66 -58 -42 -36 -41 -34 9 14 33 31
62 57 66 57 3 0 -1 -6 -9 -13z m280 -21 c0 -2 -18 -16 -41 -30 -22 -15 -38
-30 -35 -33 2 -3 17 4 33 14 37 26 65 39 33 16 -184 -133 -328 -259 -430 -378
-54 -63 -40 -41 32 50 65 82 325 335 269 263 -8 -11 -9 -18 -3 -18 12 0 27 19
27 35 0 5 24 26 54 47 54 37 61 42 61 34z m1274 -104 c14 -40 26 -83 25 -95 0
-12 -9 9 -20 46 -11 38 -26 82 -34 97 -17 32 -20 49 -6 35 5 -6 21 -43 35 -83z
m703 16 c-2 -13 -4 -5 -4 17 -1 22 1 32 4 23 2 -10 2 -28 0 -40z m-1419 35
c-15 -2 -42 -2 -60 0 -18 2 -6 4 27 4 33 0 48 -2 33 -4z m-115 -10 c-7 -2 -21
-2 -30 0 -10 3 -4 5 12 5 17 0 24 -2 18 -5z m216 -4 c48 -17 33 -19 -24 -4
-27 8 -41 14 -29 14 12 1 35 -4 53 -10z m-284 -9 c-11 -5 -27 -9 -35 -9 -9 0
-8 4 5 9 11 5 27 9 35 9 9 0 8 -4 -5 -9z m1434 -149 c1 -101 -6 -67 -12 54 -3
72 -2 93 3 60 5 -27 9 -79 9 -114z m-1232 132 c-20 -2 -52 -2 -70 0 -17 2 0 4
38 4 39 0 53 -2 32 -4z m179 -22 c78 -56 78 -69 1 -32 -39 20 -69 37 -65 39 4
2 17 -2 28 -8 12 -6 24 -9 27 -7 3 3 -8 12 -24 21 -15 8 -23 15 -17 16 6 0 29
-13 50 -29z m-1237 -53 c-82 -95 -97 -110 -70 -71 25 36 120 143 128 143 3 0
-23 -33 -58 -72z m715 38 c-88 -47 -184 -117 -261 -191 -37 -35 -69 -63 -70
-61 -7 7 153 149 212 189 70 48 156 97 170 97 6 0 -18 -15 -51 -34z m229 27
c-7 -2 -19 -2 -25 0 -7 3 -2 5 12 5 14 0 19 -2 13 -5z m200 0 c-7 -2 -19 -2
-25 0 -7 3 -2 5 12 5 14 0 19 -2 13 -5z m1344 -45 c-2 -13 -4 -5 -4 17 -1 22
1 32 4 23 2 -10 2 -28 0 -40z m-1590 36 c-3 -3 -12 -4 -19 -1 -8 3 -5 6 6 6
11 1 17 -2 13 -5z m-97 -29 c-35 -13 -66 -22 -68 -20 -5 5 100 44 118 44 8 0
-14 -11 -50 -24z m1317 -32 c-3 -10 -5 -2 -5 17 0 19 2 27 5 18 2 -10 2 -26 0
-35z m354 -143 c-8 -68 -8 -62 -8 60 0 110 1 124 7 75 5 -34 5 -94 1 -135z
m-867 78 c0 -20 5 -34 10 -31 4 3 7 -11 4 -31 -2 -20 0 -36 4 -36 4 0 8 -38 8
-85 0 -47 -4 -85 -9 -85 -4 0 -6 -10 -4 -23 8 -41 -97 -400 -113 -384 -2 2 6
27 17 57 31 81 67 225 75 294 4 34 10 66 14 71 5 6 4 50 -1 99 -5 49 -7 92 -4
94 3 3 0 11 -6 19 -7 7 -12 32 -12 54 0 27 -3 36 -9 27 -5 -8 -6 -2 -2 17 4
23 3 26 -5 15 -12 -17 -14 -10 -4 16 6 15 9 12 22 -16 8 -19 15 -52 15 -72z
m215 42 c0 -9 -4 -8 -9 5 -5 11 -9 27 -9 35 0 9 4 8 9 -5 5 -11 9 -27 9 -35z
m318 18 c-3 -7 -5 -2 -5 12 0 14 2 19 5 13 2 -7 2 -19 0 -25z m-1422 2 c-3 -5
-12 -10 -18 -10 -7 0 -6 4 3 10 19 12 23 12 15 0z m-35 -14 c0 -2 -18 -15 -40
-30 -22 -14 -40 -24 -40 -22 0 5 71 56 77 56 2 0 3 -2 3 -4z m1460 -10 c0 -3
-4 -8 -10 -11 -5 -3 -10 -1 -10 4 0 6 5 11 10 11 6 0 10 -2 10 -4z m-302 -101
c0 -25 -2 -24 -9 10 -10 51 -10 92 1 50 4 -16 8 -43 8 -60z m424 53 c-8 -8 -9
-4 -5 13 4 13 8 18 11 10 2 -7 -1 -18 -6 -23z m-2361 -1 c-10 -9 -11 -8 -5 6
3 10 9 15 12 12 3 -3 0 -11 -7 -18z m2234 -64 c-4 -49 -9 -90 -11 -92 -2 -2
-4 37 -4 87 0 60 4 92 11 92 7 0 9 -27 4 -87z m-348 30 c-3 -10 -5 -2 -5 17 0
19 2 27 5 18 2 -10 2 -26 0 -35z m-1286 -50 c-48 -49 -105 -108 -126 -133 -21
-25 -32 -36 -24 -25 14 21 106 132 124 150 19 19 108 95 111 95 2 0 -36 -39
-85 -87z m-627 10 c-39 -53 -49 -62 -34 -33 12 24 50 70 57 70 2 0 -8 -17 -23
-37z m1923 -170 c-2 -32 -3 -6 -3 57 0 63 1 89 3 58 2 -32 2 -84 0 -115z
m-1535 105 c-21 -29 -44 -63 -51 -76 -7 -12 -17 -20 -22 -16 -6 3 -9 -2 -7
-11 2 -11 -4 -19 -15 -21 -15 -2 -14 4 9 34 35 46 117 142 121 142 2 0 -14
-24 -35 -52z m1585 -5 c-3 -10 -5 -2 -5 17 0 19 2 27 5 18 2 -10 2 -26 0 -35z
m417 10 c-11 -112 -27 -233 -31 -230 -4 4 16 221 23 245 6 21 11 13 8 -15z
m23 -65 c-2 -18 -4 -4 -4 32 0 36 2 50 4 33 2 -18 2 -48 0 -65z m-1952 -12
c-25 -35 -65 -101 -90 -147 -48 -90 -62 -102 -19 -16 30 58 84 145 121 195 42
56 34 34 -12 -32z m1502 -53 c-2 -16 -4 -5 -4 22 0 28 2 40 4 28 2 -13 2 -35
0 -50z m433 -58 c-7 -41 -15 -73 -17 -71 -3 2 1 38 8 80 7 41 15 73 17 71 3
-3 -1 -39 -8 -80z m-1946 30 c-9 -14 -18 -25 -21 -25 -5 0 5 18 20 38 17 22
18 13 1 -13z m-178 -28 c-13 -22 -31 -41 -39 -43 -14 -2 -15 2 -7 17 6 10 16
18 22 16 6 -1 13 4 16 12 3 9 0 11 -8 6 -9 -6 -10 -3 -2 12 6 11 18 20 26 20
13 0 12 -8 -8 -40z m1669 -68 c-10 -38 -19 -68 -21 -66 -2 2 4 38 14 80 9 43
19 72 20 67 2 -6 -4 -42 -13 -81z m155 -16 c-7 -45 -17 -83 -22 -83 -11 0 -10
4 7 75 8 33 15 74 15 90 1 17 4 24 7 16 3 -8 0 -52 -7 -98z m-190 10 c-16 -74
-22 -62 -7 15 6 35 13 58 16 51 2 -6 -2 -36 -9 -66z m-1922 -12 c-18 -33 -37
-57 -42 -53 -5 3 -7 -1 -4 -10 4 -9 0 -15 -8 -15 -12 0 -12 4 1 21 9 12 29 42
46 69 43 65 46 59 7 -12z m405 10 c-15 -28 -29 -48 -31 -46 -4 4 48 95 55 95
2 0 -8 -22 -24 -49z m-190 -55 c-20 -39 -46 -98 -60 -131 -17 -45 -22 -51 -18
-25 5 26 4 31 -4 20 -13 -19 -14 0 -1 20 9 13 10 13 10 0 0 -13 1 -13 10 0 5
8 10 22 10 30 0 13 -1 13 -10 0 -15 -24 -11 2 5 30 9 15 14 19 15 10 0 -13 1
-13 10 0 13 20 13 33 0 25 -6 -3 -7 1 -3 10 5 13 7 14 14 3 5 -7 9 -10 9 -6 0
3 3 14 7 24 5 12 3 15 -6 9 -10 -6 -11 -3 -1 14 6 12 16 18 22 15 7 -5 9 -2 6
8 -4 8 0 15 7 15 9 0 2 -23 -22 -71z m2154 42 c-3 -7 -5 -2 -5 12 0 14 2 19 5
13 2 -7 2 -19 0 -25z m13 -68 c-7 -28 -14 -49 -16 -47 -3 2 1 27 8 55 6 29 13
50 16 47 2 -2 -1 -27 -8 -55z m-25 10 c-4 -17 -9 -30 -11 -27 -2 2 -1 18 2 36
4 17 9 30 11 27 3 -2 2 -19 -2 -36z m-2045 -61 c-16 -40 -29 -68 -30 -62 0 16
51 145 56 140 2 -2 -10 -37 -26 -78z m255 9 c-18 -40 -39 -92 -46 -116 -9 -32
-15 -39 -21 -28 -6 10 7 47 42 116 28 55 52 100 54 100 3 0 -10 -33 -29 -72z
m-204 39 c-10 -9 -11 -8 -5 6 3 10 9 15 12 12 3 -3 0 -11 -7 -18z m1515 -73
c-15 -47 -29 -84 -31 -82 -2 2 8 42 23 90 14 48 28 85 30 83 3 -2 -8 -43 -22
-91z m44 36 c-6 -23 -13 -40 -15 -38 -2 2 1 23 7 46 6 24 13 41 15 38 2 -2 -1
-23 -7 -46z m-2017 -35 c-15 -30 -29 -53 -31 -51 -4 5 46 106 53 106 3 0 -7
-25 -22 -55z m436 24 c-6 -13 -27 -66 -45 -119 -18 -52 -33 -89 -33 -82 -2 29
77 237 86 228 3 -2 -1 -15 -8 -27z m1751 -7 c0 -15 -2 -15 -10 -2 -13 20 -13
33 0 25 6 -3 10 -14 10 -23z m235 -47 c-10 -36 -20 -63 -22 -61 -2 2 4 33 13
70 10 36 20 63 22 61 3 -2 -4 -34 -13 -70z m-2420 -26 c-19 -46 -35 -78 -35
-71 0 17 61 164 66 159 2 -2 -12 -41 -31 -88z m2174 28 c0 -21 -1 -21 -9 -2
-12 28 -12 37 0 30 6 -3 10 -16 9 -28z m262 -44 c-12 -37 -26 -75 -32 -83 -9
-13 -10 -13 -6 0 3 8 16 48 28 87 13 40 25 71 27 68 2 -2 -5 -34 -17 -72z
m-461 -8 c-12 -31 -24 -54 -26 -52 -2 2 6 29 19 60 12 30 23 54 26 52 2 -2 -7
-29 -19 -60z m189 5 c0 -9 -4 -8 -9 5 -5 11 -9 27 -9 35 0 9 4 8 9 -5 5 -11 9
-27 9 -35z m-1798 -11 c-5 -13 -10 -19 -10 -12 -1 15 10 45 15 40 3 -2 0 -15
-5 -28z m-420 -30 c-11 -24 -20 -41 -20 -37 -1 12 31 89 35 85 3 -2 -4 -24
-15 -48z m276 -1 c-3 -8 -6 -5 -6 6 -1 11 2 17 5 13 3 -3 4 -12 1 -19z m1687
-47 c-15 -34 -28 -60 -30 -58 -2 2 8 31 23 65 15 33 29 59 31 57 2 -2 -9 -31
-24 -64z m222 -27 c-15 -47 -29 -84 -31 -82 -2 2 8 43 22 91 15 47 29 84 31
82 3 -2 -8 -43 -22 -91z m253 47 c-6 -18 -13 -30 -15 -28 -2 2 1 18 7 36 6 18
13 30 15 28 2 -2 -1 -18 -7 -36z m-2203 -27 c-8 -27 -15 -43 -15 -35 -1 18 21
92 26 87 2 -2 -2 -26 -11 -52z m171 34 c-3 -8 -6 -5 -6 6 -1 11 2 17 5 13 3
-3 4 -12 1 -19z m243 -13 c0 -5 -5 -3 -10 5 -8 12 -10 12 -10 1 0 -8 -2 -12
-5 -9 -3 3 -2 13 1 22 5 14 9 15 15 4 5 -7 9 -17 9 -23z m1140 17 c0 -5 -7
-17 -15 -28 -14 -18 -14 -17 -4 9 12 27 19 34 19 19z m381 -19 c-12 -20 -14
-14 -5 12 4 9 9 14 11 11 3 -2 0 -13 -6 -23z m-1907 -22 c-4 -17 -9 -30 -11
-27 -3 2 -2 19 2 36 4 17 9 30 11 27 2 -2 1 -18 -2 -36z m1707 -40 c-17 -34
-33 -61 -36 -61 -3 0 10 29 27 65 18 35 34 63 36 61 2 -2 -11 -31 -27 -65z
m-1575 4 c0 -42 -2 -50 -9 -33 -7 19 -2 88 6 88 2 0 3 -25 3 -55z m-389 13
c-3 -8 -6 -5 -6 6 -1 11 2 17 5 13 3 -3 4 -12 1 -19z m2144 -5 c-12 -20 -14
-14 -5 12 4 9 9 14 11 11 3 -2 0 -13 -6 -23z m259 -62 c-22 -45 -45 -79 -50
-76 -5 3 -8 -3 -7 -12 1 -16 -129 -223 -140 -223 -5 0 2 13 37 65 15 22 39 64
54 93 14 28 31 52 37 52 5 0 8 4 4 9 -3 6 7 35 22 65 15 31 30 51 33 45 4 -5
15 8 25 31 10 22 20 38 22 36 2 -2 -14 -41 -37 -85z m1 52 c-12 -20 -14 -14
-5 12 4 9 9 14 11 11 3 -2 0 -13 -6 -23z m-2004 -5 c-3 -8 -6 -5 -6 6 -1 11 2
17 5 13 3 -3 4 -12 1 -19z m197 -12 c-3 -15 -8 -25 -11 -23 -2 3 -1 17 3 31 3
15 8 25 11 23 2 -3 1 -17 -3 -31z m20 -10 c-3 -21 -8 -35 -11 -32 -2 2 -1 20
3 40 3 21 8 35 11 32 2 -2 1 -20 -3 -40z m-630 -10 c-3 -15 -8 -25 -11 -23 -2
3 -1 17 3 31 3 15 8 25 11 23 2 -3 1 -17 -3 -31z m250 -15 c-4 -23 -9 -40 -11
-37 -3 3 -2 23 2 46 4 23 9 39 11 37 3 -2 2 -23 -2 -46z m-27 7 c-3 -7 -5 -2
-5 12 0 14 2 19 5 13 2 -7 2 -19 0 -25z m1914 5 c-12 -20 -14 -14 -5 12 4 9 9
14 11 11 3 -2 0 -13 -6 -23z m-246 -63 c-25 -40 -44 -74 -41 -77 2 -3 21 20
42 51 20 31 39 56 41 56 20 0 -154 -224 -234 -300 l-68 -65 68 70 c91 96 85
108 -8 15 -40 -40 -72 -77 -69 -81 5 -9 -58 -60 -105 -83 -25 -13 -36 -15 -45
-6 -8 8 -6 9 8 4 12 -5 17 -4 13 3 -4 6 19 27 51 48 31 21 94 74 140 118 45
44 82 77 82 72 0 -5 11 2 25 15 14 13 25 28 25 33 0 6 -12 0 -26 -14 -15 -13
-3 7 26 45 28 38 65 93 82 123 17 30 33 52 35 49 3 -2 -16 -37 -42 -76z
m-1506 -55 c-6 -38 -9 -126 -7 -195 2 -69 1 -111 -3 -95 -11 50 -10 347 1 340
7 -4 9 9 5 37 -4 38 -4 39 5 13 6 -20 6 -53 -1 -100z m-432 93 c-3 -8 -6 -5
-6 6 -1 11 2 17 5 13 3 -3 4 -12 1 -19z m640 -10 c-3 -8 -6 -5 -6 6 -1 11 2
17 5 13 3 -3 4 -12 1 -19z m-380 -25 c-3 -10 -5 -4 -5 12 0 17 2 24 5 18 2 -7
2 -21 0 -30z m1879 -39 c-19 -38 -41 -78 -50 -89 -9 -11 6 21 32 72 26 50 48
90 50 88 2 -2 -12 -34 -32 -71z m-2109 44 c-3 -8 -6 -5 -6 6 -1 11 2 17 5 13
3 -3 4 -12 1 -19z m630 -15 c-3 -10 -5 -4 -5 12 0 17 2 24 5 18 2 -7 2 -21 0
-30z m1534 10 c-12 -20 -14 -14 -5 12 4 9 9 14 11 11 3 -2 0 -13 -6 -23z
m-2206 -23 c-4 -17 -9 -30 -11 -27 -2 2 -1 18 2 36 4 17 9 30 11 27 3 -2 2
-19 -2 -36z m642 -7 c-3 -10 -5 -4 -5 12 0 17 2 24 5 18 2 -7 2 -21 0 -30z
m-626 -83 c-11 -47 -20 -77 -20 -68 -1 24 32 174 36 162 2 -5 -6 -47 -16 -94z
m276 48 c-2 -13 -4 -5 -4 17 -1 22 1 32 4 23 2 -10 2 -28 0 -40z m-30 -20 c-2
-13 -4 -3 -4 22 0 25 2 35 4 23 2 -13 2 -33 0 -45z m1909 5 c-13 -26 -32 -57
-40 -68 -9 -11 1 12 21 52 21 39 39 70 41 68 2 -2 -8 -25 -22 -52z m-1516 -83
c-7 -108 -7 -110 -8 -35 -2 70 6 161 13 153 1 -2 -1 -55 -5 -118z m-21 78 c-5
-18 -9 -46 -9 -62 0 -16 -3 -27 -6 -23 -9 9 6 117 16 117 5 0 4 -15 -1 -32z
m-652 -20 c-3 -7 -5 -2 -5 12 0 14 2 19 5 13 2 -7 2 -19 0 -25z m300 -225 c-1
-43 -3 -8 -3 77 0 85 2 120 3 78 2 -43 2 -113 0 -155z m-310 170 c-3 -10 -5
-4 -5 12 0 17 2 24 5 18 2 -7 2 -21 0 -30z m280 -150 c-2 -37 -3 -9 -3 62 0
72 1 102 3 68 2 -34 2 -93 0 -130z m1812 120 c-55 -93 -209 -290 -209 -268 0
4 23 32 51 63 28 32 78 99 112 150 61 92 88 124 46 55z m36 -10 c-133 -209
-330 -410 -475 -483 -48 -24 -181 -72 -187 -67 -5 6 112 52 125 49 7 -2 11 1
10 6 -2 6 25 29 59 51 34 23 97 74 140 114 42 40 70 62 62 50 -16 -23 -92 -92
-160 -145 -69 -54 -8 -26 69 32 115 86 225 209 327 363 21 31 40 57 43 57 2 0
-4 -12 -13 -27z m-2138 -15 c-3 -7 -5 -2 -5 12 0 14 2 19 5 13 2 -7 2 -19 0
-25z m660 10 c-3 -8 -6 -5 -6 6 -1 11 2 17 5 13 3 -3 4 -12 1 -19z m-630 -35
c-3 -10 -5 -4 -5 12 0 17 2 24 5 18 2 -7 2 -21 0 -30z m-40 -25 c-3 -7 -5 -2
-5 12 0 14 2 19 5 13 2 -7 2 -19 0 -25z m-108 -25 c-1 -21 -3 -30 -6 -20 -2 9
-9 15 -14 11 -5 -3 -4 6 3 20 15 35 18 33 17 -11z m784 -58 c4 -63 3 -77 -3
-45 -9 45 -13 147 -6 139 2 -2 6 -44 9 -94z m-646 43 c-3 -7 -5 -2 -5 12 0 14
2 19 5 13 2 -7 2 -19 0 -25z m680 -15 c-3 -10 -5 -4 -5 12 0 17 2 24 5 18 2
-7 2 -21 0 -30z m-720 5 c-3 -8 -6 -5 -6 6 -1 11 2 17 5 13 3 -3 4 -12 1 -19z
m-112 -58 c-4 -17 -9 -30 -11 -27 -2 2 -1 18 2 36 4 17 9 30 11 27 3 -2 2 -19
-2 -36z m142 8 c-3 -7 -5 -2 -5 12 0 14 2 19 5 13 2 -7 2 -19 0 -25z m-177 19
c0 -2 -17 -19 -37 -38 l-38 -34 34 38 c33 34 41 42 41 34z m137 -34 c-3 -10
-5 -4 -5 12 0 17 2 24 5 18 2 -7 2 -21 0 -30z m740 -5 c-3 -7 -5 -2 -5 12 0
14 2 19 5 13 2 -7 2 -19 0 -25z m1447 10 c-19 -34 -117 -147 -123 -143 -4 2
-25 -14 -46 -35 -44 -45 -37 -54 10 -12 17 15 -4 -8 -48 -51 -83 -81 -193
-165 -262 -198 -43 -21 -35 -15 59 45 72 46 175 127 175 140 1 5 -7 2 -18 -5
-119 -88 -310 -200 -338 -199 -5 1 37 24 92 53 154 80 219 129 365 278 142
143 146 147 134 127z m-2157 -40 c-3 -7 -5 -2 -5 12 0 14 2 19 5 13 2 -7 2
-19 0 -25z m490 10 c-3 -8 -6 -5 -6 6 -1 11 2 17 5 13 3 -3 4 -12 1 -19z
m-530 -45 c-3 -10 -5 -2 -5 17 0 19 2 27 5 18 2 -10 2 -26 0 -35z m340 -5 c-2
-13 -4 -5 -4 17 -1 22 1 32 4 23 2 -10 2 -28 0 -40z m432 2 c0 -9 -4 -8 -9 5
-5 11 -9 27 -9 35 0 9 4 8 9 -5 5 -11 9 -27 9 -35z m-984 30 c-3 -5 -11 -10
-16 -10 -6 0 -7 5 -4 10 3 6 11 10 16 10 6 0 7 -4 4 -10z m49 -14 c-10 -8 -21
-12 -23 -10 -3 2 4 11 15 18 10 8 21 12 23 10 3 -2 -4 -11 -15 -18z m55 12 c0
-7 -9 -35 -20 -63 -10 -27 -17 -39 -15 -25 15 86 19 100 27 100 5 0 9 -6 8
-12z m478 -35 c-3 -10 -5 -4 -5 12 0 17 2 24 5 18 2 -7 2 -21 0 -30z m1202 11
c-53 -19 -79 -15 -29 5 25 10 49 15 54 13 6 -3 -6 -11 -25 -18z m-1542 -31
c-3 -10 -5 -2 -5 17 0 19 2 27 5 18 2 -10 2 -26 0 -35z m697 2 c5 -22 4 -26
-4 -15 -5 8 -10 24 -10 34 0 26 6 18 14 -19z m1707 18 c-5 -10 -26 -34 -47
-53 -36 -33 -35 -33 7 17 47 56 56 64 40 36z m-2632 4 c-36 -28 -68 -45 -64
-35 3 7 15 18 28 24 21 11 45 18 36 11z m188 -64 c-3 -10 -5 -2 -5 17 0 19 2
27 5 18 2 -10 2 -26 0 -35z m803 12 c0 -5 -5 -3 -10 5 -5 8 -10 20 -10 25 0 6
5 3 10 -5 5 -8 10 -19 10 -25z m-410 -19 c0 -26 -6 -18 -14 19 -5 22 -4 26 4
15 5 -8 10 -24 10 -34z m-370 -51 c-7 -36 -14 -64 -17 -62 -2 3 2 34 8 71 7
36 14 64 17 61 2 -2 -1 -34 -8 -70z m376 -122 c-5 -5 -46 162 -45 184 0 10 11
-27 25 -81 13 -54 23 -101 20 -103z m377 125 c14 -32 24 -58 22 -58 -6 0 -41
70 -50 100 -11 37 -1 22 28 -42z m47 17 c0 -5 -5 -3 -10 5 -5 8 -10 20 -10 25
0 6 5 3 10 -5 5 -8 10 -19 10 -25z m1527 -57 c-83 -106 -189 -207 -314 -300
-96 -70 -221 -148 -239 -148 -5 0 25 19 66 43 180 103 398 292 500 434 24 34
46 61 48 58 2 -2 -25 -41 -61 -87z m-2372 -36 c-10 -42 -22 -84 -27 -92 -7
-12 -8 -11 -3 4 3 11 13 60 23 108 9 49 19 82 20 73 2 -9 -4 -51 -13 -93z
m2347 50 c-51 -61 -194 -197 -252 -241 -35 -26 -33 -23 10 14 30 26 105 99
165 161 61 62 112 113 113 114 2 0 -14 -21 -36 -48z m-1903 -77 c-2 -20 -27
71 -27 95 0 14 6 0 13 -30 8 -30 14 -59 14 -65z m425 77 c39 -75 162 -189 244
-226 23 -11 40 -21 38 -24 -12 -12 -136 70 -195 128 -57 57 -123 150 -107 150
3 0 12 -13 20 -28z m381 -34 c64 -23 202 -31 295 -16 38 6 41 6 20 -4 -14 -6
-78 -12 -145 -12 -102 0 -128 3 -178 23 -32 12 -70 34 -85 48 l-27 24 30 -20
c17 -12 57 -31 90 -43z m-319 -124 c91 -90 248 -153 409 -164 l100 -7 -79 -1
c-192 -4 -405 99 -504 244 l-34 49 33 -40 c18 -22 52 -58 75 -81z m-909 74
c-3 -7 -5 -2 -5 12 0 14 2 19 5 13 2 -7 2 -19 0 -25z m459 -115 c-5 -5 -36 86
-35 101 0 6 9 -13 20 -43 10 -30 17 -56 15 -58z m-469 60 c-3 -10 -5 -4 -5 12
0 17 2 24 5 18 2 -7 2 -21 0 -30z m178 -71 c1 -37 5 -80 9 -97 3 -16 -1 -10
-9 15 -9 25 -15 61 -14 80 1 19 -1 51 -5 70 -6 28 -5 32 4 17 7 -10 13 -48 15
-85z m242 76 c-3 -8 -6 -5 -6 6 -1 11 2 17 5 13 3 -3 4 -12 1 -19z m74 -165
c26 -57 46 -103 43 -103 -7 0 -101 199 -108 230 l-6 25 11 -25 c7 -14 34 -71
60 -127z m-504 115 c-3 -8 -6 -5 -6 6 -1 11 2 17 5 13 3 -3 4 -12 1 -19z m-67
-60 c-25 -48 -64 -94 -95 -110 -11 -6 -2 5 20 25 22 19 51 58 64 86 14 28 26
49 28 47 3 -2 -5 -24 -17 -48z m57 20 c-3 -8 -6 -5 -6 6 -1 11 2 17 5 13 3 -3
4 -12 1 -19z m259 -125 c-4 -5 -56 115 -56 130 0 7 14 -19 30 -57 16 -38 28
-71 26 -73z m278 59 c21 -41 33 -71 28 -68 -9 5 -72 131 -72 143 0 11 7 -1 44
-75z m370 -84 c-6 -9 66 -62 129 -95 27 -13 88 -37 135 -53 48 -16 81 -29 74
-29 -23 -1 -160 48 -222 79 -68 35 -164 120 -216 193 l-37 52 71 -69 c39 -39
69 -73 66 -78z m697 126 c-18 -8 -47 -17 -65 -20 -18 -3 -8 3 24 15 65 23 89
25 41 5z m-1625 -38 c-21 -49 -28 -46 -9 4 9 22 18 38 20 36 2 -2 -3 -20 -11
-40z m1269 12 c13 -5 9 -6 -15 -2 -19 4 -42 10 -50 15 -18 11 34 1 65 -13z
m415 8 c-14 -7 -36 -16 -50 -20 -14 -3 -7 3 15 13 45 22 73 27 35 7z m-175
-16 c-11 -5 -45 -8 -75 -8 l-55 1 60 7 c87 10 92 10 70 0z m538 -18 c-17 -15
-46 -35 -65 -45 -32 -17 -32 -17 -9 0 14 10 41 30 60 45 47 35 55 35 14 0z
m-685 11 c-10 -2 -28 -2 -40 0 -13 2 -5 4 17 4 22 1 32 -1 23 -4z m197 -19
c-27 -7 -57 -13 -65 -13 -21 1 70 27 95 27 11 0 -2 -6 -30 -14z m-1585 -27 c0
-2 -10 -12 -22 -23 l-23 -19 19 23 c18 21 26 27 26 19z m279 -52 c0 -5 -4 -3
-9 5 -5 8 -9 22 -9 30 0 16 17 -16 18 -35z m-376 4 c18 0 26 -3 19 -6 -7 -3
-29 -2 -49 2 -27 5 -33 9 -22 15 8 6 15 6 17 0 2 -6 18 -10 35 -11z m436 -26
c12 -24 19 -43 16 -43 -5 0 -45 75 -45 86 0 11 6 2 29 -43z m1631 42 c0 -6
-117 -65 -127 -65 -4 1 21 16 57 35 72 38 70 37 70 30z m-1307 -59 c84 -126
228 -255 368 -331 46 -24 80 -45 75 -45 -16 0 -151 75 -201 113 -95 71 -208
193 -270 290 -32 50 -8 28 28 -27z m482 -54 c-5 -6 -99 45 -125 67 -14 11 9 2
51 -22 42 -23 75 -43 74 -45z m-826 3 c0 -5 -8 6 -19 25 -11 19 -19 40 -19 45
0 6 8 -6 19 -25 11 -19 19 -39 19 -45z m316 39 c9 -15 12 -23 6 -20 -11 7 -35
46 -28 46 3 0 12 -12 22 -26z m1165 -14 c-40 -22 -154 -60 -179 -59 -9 0 18
10 59 23 41 12 89 30 105 39 17 9 35 16 40 16 6 0 -6 -9 -25 -19z m40 -25
c-14 -8 -29 -14 -35 -14 -5 0 1 6 15 14 14 8 30 14 35 14 6 0 -1 -6 -15 -14z
m-1070 -125 c42 -42 110 -98 151 -125 42 -28 84 -56 95 -63 10 -7 3 -5 -16 4
-98 47 -267 190 -321 273 -16 25 -20 33 -7 16 12 -16 56 -64 98 -105z m-631
43 c0 -50 -3 -71 -8 -58 -8 19 -3 135 5 135 2 0 4 -35 3 -77z m261 33 c0 -12
-5 -7 -19 24 -11 24 -11 24 3 6 9 -11 16 -24 16 -30z m835 23 l20 -8 -20 0
c-11 0 -33 6 -50 14 l-30 14 30 -6 c17 -3 39 -10 50 -14z m545 2 c-8 -5 -26
-11 -40 -15 -21 -5 -20 -3 5 9 32 15 60 20 35 6z m-1371 -166 c0 -5 -18 24
-39 65 -21 41 -39 80 -39 85 0 6 18 -24 39 -65 21 -41 39 -79 39 -85z m1126
141 c11 -2 -36 -3 -105 -4 -69 0 -136 3 -150 7 -24 7 212 4 255 -3z m58 7 c-7
-2 -19 -2 -25 0 -7 3 -2 5 12 5 14 0 19 -2 13 -5z m84 -19 c-3 -3 -12 -4 -19
-1 -8 3 -5 6 6 6 11 1 17 -2 13 -5z m553 -10 c-8 -8 -23 -20 -34 -25 -13 -6
-10 0 9 15 34 29 43 33 25 10z m-1794 -101 c-5 -5 -36 86 -35 101 0 6 9 -13
20 -43 10 -30 17 -56 15 -58z m1197 100 c-7 -2 -19 -2 -25 0 -7 3 -2 5 12 5
14 0 19 -2 13 -5z m-250 -10 c-13 -2 -33 -2 -45 0 -13 2 -3 4 22 4 25 0 35 -2
23 -4z m200 0 c-7 -2 -21 -2 -30 0 -10 3 -4 5 12 5 17 0 24 -2 18 -5z m-80
-10 c-18 -2 -48 -2 -65 0 -18 2 -4 4 32 4 36 0 50 -2 33 -4z m667 -18 c0 -2
-10 -9 -22 -15 -22 -11 -22 -10 -4 4 21 17 26 19 26 11z m35 -11 c-26 -20 -55
-36 -55 -30 0 5 63 46 70 46 3 -1 -4 -8 -15 -16z m-2076 -64 c0 -9 -4 -8 -9 5
-5 11 -9 27 -9 35 0 9 4 8 9 -5 5 -11 9 -27 9 -35z m1991 45 c0 -2 -10 -9 -22
-15 -22 -11 -22 -10 -4 4 21 17 26 19 26 11z m20 -20 c0 -2 -13 -11 -30 -20
-38 -19 -40 -11 -2 9 31 17 32 18 32 11z m-70 -10 c0 -2 -13 -11 -30 -20 -38
-19 -40 -11 -2 9 31 17 32 18 32 11z m-1610 -50 c0 -5 -5 -3 -10 5 -5 8 -10
20 -10 25 0 6 5 3 10 -5 5 -8 10 -19 10 -25z m1610 20 c0 -2 -13 -11 -30 -20
-38 -19 -40 -11 -2 9 31 17 32 18 32 11z m-1956 -39 c-3 -14 -10 -26 -14 -26
-5 0 -3 13 3 30 13 35 21 33 11 -4z m371 -84 c30 -51 50 -90 46 -87 -10 6 -82
126 -105 175 -22 47 -6 24 59 -88z m1515 113 c0 -6 -56 -35 -67 -35 -4 1 8 9
27 20 39 22 40 22 40 15z m-1919 -38 c-10 -9 -11 -8 -5 6 3 10 9 15 12 12 3
-3 0 -11 -7 -18z m486 -149 c24 -32 42 -58 39 -58 -15 0 -146 193 -146 216 0
5 14 -16 32 -46 17 -30 51 -81 75 -112z m1413 147 c-14 -8 -29 -14 -35 -14 -5
0 1 6 15 14 14 8 30 14 35 14 6 0 -1 -6 -15 -14z m-65 -5 c-3 -5 0 -10 7 -10
7 -1 2 -7 -12 -15 -28 -16 -54 -20 -30 -5 13 9 13 10 0 10 -9 1 -5 6 10 15 30
17 33 18 25 5z m-65 -30 c-13 -9 -13 -10 0 -11 8 0 0 -7 -19 -15 -18 -8 -36
-13 -39 -10 -3 4 1 6 9 6 12 0 11 2 -1 10 -11 8 -7 9 15 5 17 -3 24 -2 16 1
-11 5 -11 8 0 15 8 5 19 9 24 9 6 0 3 -5 -5 -10z m-80 -41 c12 -8 10 -9 -9 -4
-18 5 -22 4 -16 -6 6 -9 3 -11 -9 -6 -10 4 -21 7 -24 8 -7 0 28 17 38 18 3 0
12 -4 20 -10z m-570 -26 c30 -11 31 -12 6 -8 -16 4 -43 13 -60 20 -23 11 -25
13 -6 8 14 -3 41 -12 60 -20z m-332 -128 c67 -42 122 -79 122 -82 0 -2 -15 5
-34 16 -46 29 -57 26 -21 -5 l30 -26 -30 17 c-40 24 -179 133 -235 185 l-45
42 45 -35 c25 -20 100 -70 168 -112z m287 120 c44 -13 73 -24 64 -24 -20 -1
-149 38 -149 44 0 6 -8 8 85 -20z m553 16 c21 -13 -32 -23 -60 -11 -19 9 -18
9 12 4 26 -4 31 -3 20 5 -13 10 -13 11 0 11 8 0 21 -4 28 -9z m-73 -21 c13 -5
14 -9 5 -9 -8 0 -24 4 -35 9 -13 5 -14 9 -5 9 8 0 24 -4 35 -9z m-352 -7 c-7
-2 -19 -2 -25 0 -7 3 -2 5 12 5 14 0 19 -2 13 -5z m312 -3 l20 -9 -20 1 c-11
0 -31 4 -45 8 l-25 8 25 0 c14 0 34 -3 45 -8z m-70 -9 c17 -4 -24 -6 -90 -3
-66 2 -124 5 -130 7 -20 7 191 3 220 -4z m-242 -8 c-7 -2 -21 -2 -30 0 -10 3
-4 5 12 5 17 0 24 -2 18 -5z m160 -10 c-23 -2 -64 -2 -90 0 -26 2 -7 3 42 3
50 0 71 -1 48 -3z m-873 -48 c13 -14 21 -25 18 -25 -2 0 -15 11 -28 25 -13 14
-21 25 -18 25 2 0 15 -11 28 -25z m65 -35 c17 -18 17 -20 2 -14 -9 3 -17 10
-17 16 0 5 -5 6 -12 2 -7 -4 -8 -3 -4 4 9 16 10 15 31 -8z m1232 -84 c-10 -8
-28 -11 -40 -8 -19 6 -17 7 13 13 19 3 37 7 40 7 3 1 -3 -5 -13 -12z m-791
-43 c-4 -4 -76 37 -76 44 0 2 18 -6 40 -18 22 -12 38 -24 36 -26z m-21 -16
c16 -15 -48 20 -70 38 -11 9 -2 7 20 -6 22 -12 45 -26 50 -32z m718 46 c-7 -2
-21 -2 -30 0 -10 3 -4 5 12 5 17 0 24 -2 18 -5z m-65 -10 c-10 -2 -26 -2 -35
0 -10 3 -2 5 17 5 19 0 27 -2 18 -5z m-65 -10 c-7 -2 -21 -2 -30 0 -10 3 -4 5
12 5 17 0 24 -2 18 -5z m-319 -23 c11 -11 -37 -4 -84 12 -17 5 -9 6 25 3 27
-3 54 -10 59 -15z m254 13 c-10 -2 -28 -2 -40 0 -13 2 -5 4 17 4 22 1 32 -1
23 -4z m187 -3 c-11 -5 -33 -8 -50 -8 -29 1 -29 1 5 8 49 10 69 10 45 0z
m-297 -7 c-21 -2 -57 -2 -80 0 -24 2 -7 4 37 4 44 0 63 -2 43 -4z m-283 -33
c39 -16 63 -29 55 -29 -15 0 -140 56 -130 58 3 1 37 -12 75 -29z m-65 0 c19
-11 31 -19 25 -19 -5 0 -26 8 -45 19 -19 11 -30 19 -25 19 6 0 26 -8 45 -19z
m253 13 c-7 -2 -19 -2 -25 0 -7 3 -2 5 12 5 14 0 19 -2 13 -5z m60 -10 c-7 -2
-21 -2 -30 0 -10 3 -4 5 12 5 17 0 24 -2 18 -5z m274 1 c-3 -3 -12 -4 -19 -1
-8 3 -5 6 6 6 11 1 17 -2 13 -5z m-210 -10 c-3 -3 -12 -4 -19 -1 -8 3 -5 6 6
6 11 1 17 -2 13 -5z m366 -8 c48 -7 91 -17 95 -21 4 -3 -4 -4 -18 -2 -14 3
-65 11 -115 17 -49 7 -94 14 -100 15 -26 9 60 3 138 -9z m-280 -3 c-7 -2 -21
-2 -30 0 -10 3 -4 5 12 5 17 0 24 -2 18 -5z m-343 -30 c30 -11 31 -12 6 -8
-16 4 -43 13 -60 20 -23 11 -25 13 -6 8 14 -3 41 -12 60 -20z m408 20 c-10 -2
-26 -2 -35 0 -10 3 -2 5 17 5 19 0 27 -2 18 -5z m-303 -23 c39 -11 54 -18 34
-15 -39 6 -130 33 -114 34 6 0 42 -8 80 -19z m388 13 c-13 -2 -33 -2 -45 0
-13 2 -3 4 22 4 25 0 35 -2 23 -4z m70 -10 c-7 -2 -21 -2 -30 0 -10 3 -4 5 12
5 17 0 24 -2 18 -5z m60 -10 c-7 -2 -21 -2 -30 0 -10 3 -4 5 12 5 17 0 24 -2
18 -5z m-513 -18 c30 -7 44 -13 30 -13 -24 0 -115 25 -95 27 6 0 35 -6 65 -14z
m573 8 c-7 -2 -19 -2 -25 0 -7 3 -2 5 12 5 14 0 19 -2 13 -5z m-488 -14 c-17
-8 -15 -9 10 -6 17 2 44 1 60 -3 23 -6 16 -8 -32 -9 -58 -1 -73 5 -56 22 3 4
13 7 22 6 12 0 11 -3 -4 -10z"/>
<path d="M7360 7596 c0 -2 8 -10 18 -17 15 -13 16 -12 3 4 -13 16 -21 21 -21
13z"/>
<path d="M7230 7147 c0 -8 60 -111 60 -104 0 11 -49 107 -55 107 -3 0 -5 -2
-5 -3z"/>
<path d="M6105 7090 c-3 -5 -2 -10 4 -10 5 0 13 5 16 10 3 6 2 10 -4 10 -5 0
-13 -4 -16 -10z"/>
<path d="M5993 6994 l-58 -56 63 53 c34 28 62 54 62 55 0 10 -14 -1 -67 -52z"/>
<path d="M6960 7036 c0 -2 7 -7 16 -10 8 -3 12 -2 9 4 -6 10 -25 14 -25 6z"/>
<path d="M7817 6075 c-24 -50 -20 -58 4 -12 11 22 19 41 17 43 -3 2 -12 -12
-21 -31z"/>
<path d="M7260 5955 c-7 -9 -11 -18 -8 -20 3 -3 11 1 18 10 7 9 11 18 8 20 -3
3 -11 -1 -18 -10z"/>
<path d="M6981 5679 c-30 -21 -50 -39 -44 -39 11 0 101 58 109 71 11 18 -12 7
-65 -32z"/>
<path d="M6975 5379 c-16 -10 -26 -19 -22 -19 11 0 67 29 67 35 0 9 -15 4 -45
-16z"/>
<path d="M7270 5445 c-8 -9 -8 -15 -2 -15 12 0 26 19 19 26 -2 2 -10 -2 -17
-11z"/>
<path d="M6135 5100 c10 -11 20 -20 23 -20 3 0 -3 9 -13 20 -10 11 -20 20 -23
20 -3 0 3 -9 13 -20z"/>
<path d="M6050 4495 c0 -7 61 -47 66 -42 3 2 -11 14 -31 25 -19 12 -35 20 -35
17z"/>
<path d="M4185 8080 c-3 -5 -2 -10 4 -10 5 0 13 5 16 10 3 6 2 10 -4 10 -5 0
-13 -4 -16 -10z"/>
<path d="M4099 8013 c-13 -16 -12 -17 4 -4 16 13 21 21 13 21 -2 0 -10 -8 -17
-17z"/>
<path d="M4428 7964 c-39 -21 -35 -28 5 -8 37 19 44 24 31 24 -5 -1 -21 -8
-36 -16z"/>
<path d="M4020 7643 l-85 -88 88 85 c48 46 87 86 87 87 0 8 -11 -3 -90 -84z"/>
<path d="M5552 7626 c40 -51 58 -66 58 -48 0 12 -81 102 -91 102 -6 0 9 -24
33 -54z"/>
<path d="M5315 7587 c17 -12 51 -40 76 -62 25 -22 17 -12 -20 23 -36 34 -70
62 -76 62 -5 0 4 -11 20 -23z"/>
<path d="M5450 7456 c0 -2 8 -10 18 -17 15 -13 16 -12 3 4 -13 16 -21 21 -21
13z"/>
<path d="M4130 7088 c-12 -22 -12 -22 6 -6 10 10 15 20 12 24 -4 3 -12 -5 -18
-18z"/>
<path d="M2775 7055 c-16 -13 -25 -24 -19 -25 6 0 21 11 34 25 30 32 24 32
-15 0z"/>
<path d="M2646 6914 c-10 -14 -16 -28 -13 -30 2 -3 12 7 21 22 10 14 16 28 13
30 -2 3 -12 -7 -21 -22z"/>
<path d="M2651 5854 c0 -11 3 -14 6 -6 3 7 2 16 -1 19 -3 4 -6 -2 -5 -13z"/>
<path d="M2840 5735 c0 -5 5 -17 10 -25 5 -8 10 -10 10 -5 0 6 -5 17 -10 25
-5 8 -10 11 -10 5z"/>
<path d="M3000 4856 c0 -2 8 -10 18 -17 15 -13 16 -12 3 4 -13 16 -21 21 -21
13z"/>
<path d="M4550 2570 l0 -670 125 0 125 0 0 670 0 670 -125 0 -125 0 0 -670z"/>
<path d="M8330 2570 l0 -670 125 0 125 0 0 153 0 152 56 58 c31 32 58 57 59
55 1 -2 55 -93 119 -203 65 -110 121 -204 125 -208 4 -4 69 -6 144 -5 l137 3
-161 255 c-89 140 -170 269 -180 286 l-19 30 175 187 c96 102 175 189 175 192
0 3 -63 5 -139 5 l-140 0 -176 -195 c-97 -107 -177 -195 -178 -195 -1 0 -1
173 1 385 l3 385 -126 0 -125 0 0 -670z"/>
<path d="M1080 2545 l0 -647 293 5 c264 4 299 6 367 26 172 51 298 154 368
302 22 46 46 109 53 139 21 82 18 290 -5 365 -51 171 -167 312 -316 383 -47
22 -107 45 -135 52 -28 7 -174 14 -337 17 l-288 5 0 -647z m561 399 c165 -48
255 -173 266 -370 8 -138 -24 -244 -99 -330 -74 -85 -156 -112 -346 -116
l-132 -3 0 418 0 417 128 0 c88 0 146 -5 183 -16z"/>
<path d="M5040 2546 l0 -646 238 0 c131 0 276 5 322 11 352 44 566 307 547
674 -15 292 -183 504 -456 577 -65 17 -116 21 -363 25 l-288 6 0 -647z m615
381 c152 -70 234 -226 222 -417 -9 -145 -63 -252 -161 -317 -73 -49 -128 -62
-284 -64 l-137 -1 -3 417 -2 417 152 -4 c142 -3 157 -6 213 -31z"/>
<path d="M3808 2869 c-177 -26 -325 -163 -373 -344 -21 -82 -19 -224 4 -307
58 -210 231 -338 456 -338 183 0 325 81 404 229 17 33 31 62 31 65 0 3 -56 6
-124 6 l-124 0 -39 -39 c-75 -76 -220 -82 -296 -13 -29 26 -57 86 -64 137 l-6
46 333 -3 332 -3 -4 120 c-4 114 -6 125 -40 198 -66 137 -179 223 -328 246
-73 12 -81 12 -162 0z m182 -204 c39 -20 77 -69 90 -113 21 -77 34 -72 -196
-72 l-206 0 7 38 c14 82 54 129 131 158 45 17 131 11 174 -11z"/>
<path d="M6670 2869 c-200 -29 -350 -170 -391 -368 -17 -83 -7 -243 21 -314
74 -194 238 -307 444 -307 138 0 231 36 323 122 30 29 66 77 83 112 l31 61
-126 3 -126 3 -26 -32 c-15 -18 -45 -40 -68 -50 -48 -22 -142 -25 -188 -5 -62
26 -111 99 -119 176 l-3 35 330 2 330 1 3 77 c4 95 -10 162 -47 242 -84 178
-268 272 -471 242z m170 -210 c44 -25 90 -102 90 -151 l0 -28 -204 0 -204 0 9
41 c18 81 61 131 134 158 43 16 128 6 175 -20z"/>
<path d="M7685 2869 c-171 -26 -314 -159 -360 -336 -19 -73 -19 -233 0 -306
55 -212 226 -347 439 -347 80 0 165 19 228 51 66 34 145 116 177 183 54 115
61 106 -83 106 l-125 0 -23 -42 c-34 -61 -67 -81 -142 -86 -163 -10 -247 108
-233 328 7 123 51 206 124 236 42 18 134 18 176 0 38 -15 84 -66 93 -102 6
-24 8 -24 124 -24 66 0 121 3 123 8 9 15 -53 146 -91 191 -93 110 -260 165
-427 140z"/>
<path d="M2370 2495 c0 -347 1 -367 21 -422 59 -160 247 -233 444 -172 53 16
78 31 116 69 l49 49 0 -59 0 -60 120 0 120 0 0 480 0 480 -125 0 -125 0 0
-297 c0 -164 -5 -316 -10 -337 -11 -51 -38 -86 -86 -114 -33 -19 -51 -22 -111
-20 -84 4 -117 22 -148 84 -19 36 -20 62 -23 362 l-3 322 -120 0 -119 0 0
-365z"/>
</g>
</svg>
